<svg class="img-fluid" width="444" height="209" viewBox="0 0 444 209" fill="none" xmlns="http://www.w3.org/2000/svg"><g clip-path="url(#clip0_2850_184518)"><path d="M253.422 98.9102H261.941V92.7448H253.422V98.9102Z" fill="#CFE7F7"></path><path d="M268.151 94.6992H248.486V173.766H268.151V94.6992Z" fill="#A1D3F3"></path><path d="M271.977 129.289V133.951H273.387V143.314H278.183V208.356H253.09V129.289H271.977Z" fill="#91CCF2"></path><path d="M224.522 74.5723H216.292V75.4235H224.522V74.5723Z" fill="#F8FAFB"></path><path d="M226.58 75.4316H214.234V89.7113H226.58V75.4316Z" fill="#B5DCF5"></path><path d="M239.181 119.562H240.831V48.8882H239.181V119.562Z" fill="#BADEF5"></path><path d="M242.857 119.562H244.507V48.8882H242.857V119.562Z" fill="#BADEF5"></path><path d="M248.782 69.4727H222.473V148.222H248.782V69.4727Z" fill="#FCFCFC"></path><path d="M237.541 75.1621H235.299V78.7817H237.541V75.1621Z" fill="#CBE6F7"></path><path d="M237.541 81.2246H235.299V84.8442H237.541V81.2246Z" fill="#CBE6F7"></path><path d="M242.353 87.2852H240.111V90.9048H242.353V87.2852Z" fill="#CBE6F7"></path><path d="M265.581 121.484H236.02V97.7852L265.581 121.484Z" fill="#E4F1F9"></path><path d="M238.614 90.2363H203.041V208.364H238.614V90.2363Z" fill="#FCFCFC"></path><path d="M267.102 119.543H234.499V208.363H267.102V119.543Z" fill="#BADEF5"></path><path d="M251.321 129.289H231.656V208.356H251.321V129.289Z" fill="#A1D3F3"></path><path d="M224.53 86.7754H203.041V90.2359H224.53V86.7754Z" fill="#FCFCFC"></path><path d="M235.568 153.092H252.47V149.838H235.568V153.092Z" fill="#CBE6F7"></path><path d="M235.568 159.027H252.47V155.774H235.568V159.027Z" fill="#CBE6F7"></path><path d="M235.568 164.971H252.47V161.717H235.568V164.971Z" fill="#CBE6F7"></path><path d="M235.568 170.904H252.47V167.651H235.568V170.904Z" fill="#CBE6F7"></path><path d="M235.568 176.848H252.47V173.594H235.568V176.848Z" fill="#CBE6F7"></path><path d="M235.568 182.783H252.47V179.53H235.568V182.783Z" fill="#CBE6F7"></path><path d="M235.568 188.727H252.47V185.473H235.568V188.727Z" fill="#CBE6F7"></path><path d="M235.568 194.662H252.47V191.408H235.568V194.662Z" fill="#CBE6F7"></path><path d="M235.568 200.598H252.47V197.344H235.568V200.598Z" fill="#CBE6F7"></path><path d="M325.19 35.4414H315.013V113.657H325.19V35.4414Z" fill="#93CDF2"></path><path d="M344.229 38.3926H307.159V135.041H344.229V38.3926Z" fill="#BADEF5"></path><path d="M333.356 50.0781H331.218V55.1217H333.356V50.0781Z" fill="#FCFCFC"></path><path d="M336.935 50.5625H334.797V55.6061H336.935V50.5625Z" fill="#A1D3F3"></path><path d="M329.705 56.5625H327.567V61.6061H329.705V56.5625Z" fill="#FCFCFC"></path><path d="M336.935 56.5625H334.797V61.6061H336.935V56.5625Z" fill="#FCFCFC"></path><path d="M333.356 63.0449H331.218V68.0885H333.356V63.0449Z" fill="#CFE7F7"></path><path d="M329.705 70.0137H327.567V75.0573H329.705V70.0137Z" fill="#A1D3F3"></path><path d="M333.356 69.5293H331.218V74.5729H333.356V69.5293Z" fill="#A1D3F3"></path><path d="M336.935 69.5293H334.797V74.5729H336.935V69.5293Z" fill="#FCFCFC"></path><path d="M329.705 82.4961H327.567V87.5397H329.705V82.4961Z" fill="#FCFCFC"></path><path d="M336.935 82.4961H334.797V87.5397H336.935V82.4961Z" fill="#FCFCFC"></path><path d="M333.356 88.9785H331.218V94.0221H333.356V88.9785Z" fill="#FCFCFC"></path><path d="M336.935 88.9785H334.797V94.0221H336.935V88.9785Z" fill="#A1D3F3"></path><path d="M329.705 95.4629H327.567V100.507H329.705V95.4629Z" fill="#CFE7F7"></path><path d="M333.356 101.945H331.218V106.989H333.356V101.945Z" fill="#CFE7F7"></path><path d="M302.976 112.615H309.709V110.547H302.976V112.615Z" fill="#E4F1F9"></path><path d="M302.119 113.062H310.566V112.164H302.119V113.062Z" fill="#E4F1F9"></path><path d="M300.005 128.129H312.68V113.062H300.005V128.129Z" fill="#93CDF2"></path><path d="M349.794 208.357V92.489L313.316 72.935H299.785V69.4824H299.264V100.086H296.494V79.514H281.586V100.086H279.087V131.812H276.285V208.357H349.794Z" fill="#A1D3F3"></path><path d="M320.89 76.9922V208.357H349.794V92.489L320.89 76.9922Z" fill="#BADEF5"></path><path d="M314.501 105.465H297.278V208.358H314.501V105.465Z" fill="#EDF5FA"></path><path d="M311.522 115.566H310.105V181.094H311.522V115.566Z" fill="#9CD1F3"></path><path d="M308.383 115.566H306.966V181.094H308.383V115.566Z" fill="#9CD1F3"></path><path d="M305.237 115.566H303.82V181.094H305.237V115.566Z" fill="#9CD1F3"></path><path d="M302.098 115.566H300.681V181.094H302.098V115.566Z" fill="#9CD1F3"></path><path d="M331.123 103.34H321.17V115.535H331.123V103.34Z" fill="#BADEF5"></path><path d="M207.957 121.508H195.186V208.355H207.957V121.508Z" fill="#A1D3F3"></path><path d="M164.285 131.02H186.599V119.246H164.285V131.02Z" fill="#CFE7F7"></path><path d="M167.113 113.178H174.023V101.404H167.113V113.178Z" fill="#91CCF2"></path><path d="M171.516 117.035H180.531V108.078H171.516V117.035Z" fill="#91CCF2"></path><path d="M163.034 112.092H163.659V80.6129H163.034V112.092Z" fill="#91CCF2"></path><path d="M203.641 107.857H180.021V208.356H203.641V107.857Z" fill="#A1D3F3"></path><path d="M208.696 32.5156H220.898V18.0212H208.696V32.5156Z" fill="#91CCF2"></path><path d="M149.364 208.356L150.781 117.189H152.478V107.849L180.422 104.508V122.908H183.72V22.6724H189.909V0H191.655V22.6724H223.433V120.609H227.004V208.356H149.364Z" fill="#BFE1F6"></path><path d="M215.226 65.8379H213.017V71.0486H215.226V65.8379Z" fill="#CBE6F7"></path><path d="M218.933 66.3398H216.724V71.5505H218.933V66.3398Z" fill="#CBE6F7"></path><path d="M211.463 72.5449H209.253V77.7556H211.463V72.5449Z" fill="#CBE6F7"></path><path d="M218.933 72.5449H216.724V77.7556H218.933V72.5449Z" fill="#CBE6F7"></path><path d="M215.226 79.2422H213.017V84.4529H215.226V79.2422Z" fill="#CBE6F7"></path><path d="M211.463 86.4414H209.253V91.6521H211.463V86.4414Z" fill="#CBE6F7"></path><path d="M211.463 170.322H209.253V175.533H211.463V170.322Z" fill="#CBE6F7"></path><path d="M211.463 184.221H209.253V189.431H211.463V184.221Z" fill="#CBE6F7"></path><path d="M215.226 85.9414H213.017V91.1521H215.226V85.9414Z" fill="#CBE6F7"></path><path d="M218.933 85.9414H216.724V91.1521H218.933V85.9414Z" fill="#CBE6F7"></path><path d="M211.463 99.3457H209.253V104.556H211.463V99.3457Z" fill="#CBE6F7"></path><path d="M218.933 99.3457H216.724V104.556H218.933V99.3457Z" fill="#CBE6F7"></path><path d="M215.226 106.043H213.017V111.254H215.226V106.043Z" fill="#CBE6F7"></path><path d="M218.933 106.043H216.724V111.254H218.933V106.043Z" fill="#CBE6F7"></path><path d="M218.933 134.562H216.724V139.773H218.933V134.562Z" fill="#CBE6F7"></path><path d="M218.933 147.959H216.724V153.17H218.933V147.959Z" fill="#CBE6F7"></path><path d="M218.933 154.658H216.724V159.869H218.933V154.658Z" fill="#CBE6F7"></path><path d="M211.463 112.742H209.253V117.953H211.463V112.742Z" fill="#CBE6F7"></path><path d="M215.226 119.439H213.017V124.65H215.226V119.439Z" fill="#CBE6F7"></path><path d="M175.994 127.084H158.387V207.042H175.994V127.084Z" fill="#A1D3F3"></path><path d="M195.25 102.471H191.791V108.867H195.25V102.471Z" fill="#CBE6F7"></path><path d="M163.335 113.203H159.876V119.599H163.335V113.203Z" fill="#CBE6F7"></path><path d="M153.932 140.734H166.038V136.916H153.932V140.734Z" fill="#EDF5FA"></path><path d="M153.932 147.709H166.038V143.89H153.932V147.709Z" fill="#EDF5FA"></path><path d="M153.932 154.674H166.038V150.855H153.932V154.674Z" fill="#EDF5FA"></path><path d="M153.932 161.648H166.038V157.83H153.932V161.648Z" fill="#EDF5FA"></path><path d="M153.932 168.621H166.038V164.803H153.932V168.621Z" fill="#EDF5FA"></path><path d="M153.932 175.588H166.038V171.769H153.932V175.588Z" fill="#EDF5FA"></path><path d="M153.932 182.561H166.038V178.742H153.932V182.561Z" fill="#EDF5FA"></path><path d="M153.932 189.535H166.038V185.717H153.932V189.535Z" fill="#EDF5FA"></path><path d="M153.932 196.5H166.038V192.681H153.932V196.5Z" fill="#EDF5FA"></path><path d="M223.001 33.1816H192.447V207.043H223.001V33.1816Z" fill="#A1D3F3"></path><path d="M207.711 44.752H224.661V42.4927H207.711V44.752Z" fill="#CBE6F7"></path><path d="M207.711 48.873H224.661V46.6138H207.711V48.873Z" fill="#CBE6F7"></path><path d="M207.711 53.0039H224.661V50.7446H207.711V53.0039Z" fill="#CBE6F7"></path><path d="M207.711 57.125H224.661V54.8657H207.711V57.125Z" fill="#CBE6F7"></path><path d="M207.711 61.2559H224.661V58.9966H207.711V61.2559Z" fill="#CBE6F7"></path><path d="M207.711 65.377H224.661V63.1177H207.711V65.377Z" fill="#CBE6F7"></path><path d="M207.711 69.498H224.661V67.2388H207.711V69.498Z" fill="#CBE6F7"></path><path d="M207.711 73.6289H224.661V71.3696H207.711V73.6289Z" fill="#CBE6F7"></path><path d="M207.711 77.75H224.661V75.4907H207.711V77.75Z" fill="#CBE6F7"></path><path d="M207.711 81.7461H224.661V79.4868H207.711V81.7461Z" fill="#CBE6F7"></path><path d="M207.711 85.8672H224.661V83.6079H207.711V85.8672Z" fill="#CBE6F7"></path><path d="M207.711 89.9902H224.661V87.7309H207.711V89.9902Z" fill="#CBE6F7"></path><path d="M207.711 94.1191H224.661V91.8599H207.711V94.1191Z" fill="#CBE6F7"></path><path d="M207.711 98.2422H224.661V95.9829H207.711V98.2422Z" fill="#CBE6F7"></path><path d="M207.711 102.371H224.661V100.112H207.711V102.371Z" fill="#CBE6F7"></path><path d="M207.711 106.492H224.661V104.233H207.711V106.492Z" fill="#CBE6F7"></path><path d="M207.711 110.623H224.661V108.364H207.711V110.623Z" fill="#CBE6F7"></path><path d="M207.711 114.744H224.661V112.485H207.711V114.744Z" fill="#CBE6F7"></path><path d="M402.122 120.605H406.389V118.529H402.122V120.605Z" fill="#E4F1F9"></path><path d="M401.577 121.057H406.934V120.158H401.577V121.057Z" fill="#E4F1F9"></path><path d="M400.24 123.404H408.271V121.058H400.24V123.404Z" fill="#E4F1F9"></path><path d="M403.759 98.073H404.76L404.399 87.2539H404.119L403.759 98.073Z" fill="#E4F1F9"></path><path d="M403.126 97.8984V118.988H405.392V97.8984H403.126ZM404.407 107.174H404.712V118.081H404.407V107.174ZM403.807 107.174H404.111V118.081H403.807V107.174Z" fill="#E4F1F9"></path><path d="M393.972 202.393H410.25V108.218H393.972V202.393Z" fill="#A1D3F3"></path><path d="M400.239 121.314H403.986V112.524H400.239V121.314Z" fill="#A1D3F3"></path><path d="M417.802 125.908H401.525V208.221H417.802V125.908Z" fill="#A1D3F3"></path><path d="M414.384 150.889H392.806V208.222H414.384V150.889Z" fill="#BADEF5"></path><path d="M410.796 125.908H408.547V152.017H410.796V125.908Z" fill="#A1D3F3"></path><path d="M398.834 125.908H417.809V122.957H398.834V125.908Z" fill="#FCFCFC"></path><path d="M387.009 123.625V60.7862H382.701V57.795H381.732V57.3336H381.34V56.5063H380.62V50.2773H380.155L379.899 44.8359H379.699L379.443 50.2773H378.978V56.5063H378.258V57.3336H377.865V57.795H376.896V60.7862H364.918L358.009 70.4836V123.625H387.009ZM379.683 56.2756H379.467V50.691H379.683V56.2756ZM380.115 56.2756H379.899V50.691H380.115V56.2756Z" fill="#B5DCF5"></path><path d="M367.769 78.1445H354.222V90.316H367.769V78.1445Z" fill="#93CDF2"></path><path d="M370.115 98.0332H344.686V170.49H370.115V98.0332Z" fill="#93CDF2"></path><path d="M350.274 100.73L344.686 98.0332H370.115L350.274 100.73Z" fill="#FCFCFC"></path><path d="M395.4 72.7188V93.0046H381.869V85.1846H374.479V81.9309H370.547V85.1846H351.964C351.9 85.3119 351.844 85.4392 351.772 85.5585V120.347H343.989V208.364H396.641V72.7188H395.4Z" fill="#A1D3F3"></path><path d="M355.479 126.457H341.659V128.406H355.479V126.457Z" fill="#FCFCFC"></path><path d="M355.479 131.539H341.659V133.488H355.479V131.539Z" fill="#FCFCFC"></path><path d="M355.479 136.17H341.659V138.119H355.479V136.17Z" fill="#FCFCFC"></path><path d="M355.479 140.799H341.659V142.748H355.479V140.799Z" fill="#FCFCFC"></path><path d="M355.479 145.43H341.659V147.379H355.479V145.43Z" fill="#FCFCFC"></path><path d="M355.479 150.059H341.659V152.008H355.479V150.059Z" fill="#FCFCFC"></path><path d="M355.479 154.697H341.659V156.646H355.479V154.697Z" fill="#FCFCFC"></path><path d="M355.479 159.328H341.659V161.277H355.479V159.328Z" fill="#FCFCFC"></path><path d="M355.479 163.957H341.659V165.906H355.479V163.957Z" fill="#FCFCFC"></path><path d="M355.479 168.588H341.659V170.537H355.479V168.588Z" fill="#FCFCFC"></path><path d="M355.479 173.217H341.659V175.166H355.479V173.217Z" fill="#FCFCFC"></path><path d="M396.641 92.9883H360.995V208.363H396.641V92.9883Z" fill="#CFE7F7"></path><path d="M382.749 118.445H380.019V122.582H382.749V118.445Z" fill="#FCFCFC"></path><path d="M387.337 118.836H384.607V122.973H387.337V118.836Z" fill="#A1D3F3"></path><path d="M378.074 123.76H375.343V127.896H378.074V123.76Z" fill="#FCFCFC"></path><path d="M382.749 129.082H380.019V133.219H382.749V129.082Z" fill="#CFE7F7"></path><path d="M382.749 97.9844H380.019V102.121H382.749V97.9844Z" fill="#FCFCFC"></path><path d="M382.749 108.621H380.019V112.758H382.749V108.621Z" fill="#CFE7F7"></path><path d="M382.749 134.395H380.019V138.531H382.749V134.395Z" fill="#A1D3F3"></path><path d="M387.337 114.205H384.607V118.342H387.337V114.205Z" fill="#FCFCFC"></path><path d="M378.074 172.176H375.343V176.313H378.074V172.176Z" fill="#FCFCFC"></path><path d="M387.337 145.031H384.607V149.168H387.337V145.031Z" fill="#FCFCFC"></path><path d="M382.749 150.346H380.019V154.482H382.749V150.346Z" fill="#FCFCFC"></path><path d="M387.337 150.346H384.607V154.482H387.337V150.346Z" fill="#A1D3F3"></path><path d="M378.074 155.66H375.343V159.797H378.074V155.66Z" fill="#CFE7F7"></path><path d="M382.749 172.342H380.019V176.479H382.749V172.342Z" fill="#CFE7F7"></path><path d="M387.337 160.982H384.607V165.119H387.337V160.982Z" fill="#FCFCFC"></path><path d="M378.074 178.133H375.343V182.27H378.074V178.133Z" fill="#CFE7F7"></path><path d="M387.337 183.447H384.607V187.584H387.337V183.447Z" fill="#FCFCFC"></path><path d="M393.638 109.877H390.908V114.014H393.638V109.877Z" fill="#FCFCFC"></path><path d="M393.638 120.514H390.908V124.65H393.638V120.514Z" fill="#CFE7F7"></path><path d="M393.638 100.053H390.908V104.189H393.638V100.053Z" fill="#CFE7F7"></path><path d="M393.638 125.828H390.908V129.965H393.638V125.828Z" fill="#A1D3F3"></path><path d="M393.638 141.777H390.908V145.914H393.638V141.777Z" fill="#FCFCFC"></path><path d="M393.638 163.773H390.908V167.91H393.638V163.773Z" fill="#CFE7F7"></path><path d="M207.967 187.902H210.698V183.766H207.967V187.902Z" fill="#C2E1F6"></path><path opacity="0.47" d="M203.373 187.504H206.103V183.367H203.373V187.504Z" fill="#55B1EB"></path><path d="M212.63 182.582H215.36V178.445H212.63V182.582Z" fill="#C2E1F6"></path><path d="M207.967 177.271H210.698V173.135H207.967V177.271Z" fill="#8CCAF1"></path><path d="M207.967 208.355H210.698V204.219H207.967V208.355Z" fill="#C2E1F6"></path><path d="M207.967 197.725H210.698V193.588H207.967V197.725Z" fill="#8CCAF1"></path><path opacity="0.47" d="M207.967 171.951H210.698V167.814H207.967V171.951Z" fill="#55B1EB"></path><path d="M203.373 192.141H206.103V188.004H203.373V192.141Z" fill="#C2E1F6"></path><path d="M212.63 134.168H215.36V130.031H212.63V134.168Z" fill="#C2E1F6"></path><path d="M203.373 161.32H206.103V157.184H203.373V161.32Z" fill="#C2E1F6"></path><path d="M207.967 156.002H210.698V151.865H207.967V156.002Z" fill="#C2E1F6"></path><path opacity="0.47" d="M203.373 156.002H206.103V151.865H203.373V156.002Z" fill="#55B1EB"></path><path d="M212.63 150.682H215.36V146.545H212.63V150.682Z" fill="#8CCAF1"></path><path d="M207.967 134.002H210.698V129.865H207.967V134.002Z" fill="#8CCAF1"></path><path d="M203.373 145.371H206.103V141.234H203.373V145.371Z" fill="#C2E1F6"></path><path d="M212.63 128.215H215.36V124.078H212.63V128.215Z" fill="#8CCAF1"></path><path d="M203.373 122.895H206.103V118.758H203.373V122.895Z" fill="#C2E1F6"></path><path d="M288.295 151.404H285.565V155.541H288.295V151.404Z" fill="#FCFCFC"></path><path d="M292.883 151.795H290.153V155.932H292.883V151.795Z" fill="#A1D3F3"></path><path d="M283.627 156.719H280.897V160.855H283.627V156.719Z" fill="#FCFCFC"></path><path d="M288.295 162.033H285.565V166.17H288.295V162.033Z" fill="#CFE7F7"></path><path d="M288.295 130.943H285.565V135.08H288.295V130.943Z" fill="#FCFCFC"></path><path d="M288.295 141.58H285.565V145.717H288.295V141.58Z" fill="#CFE7F7"></path><path d="M288.295 167.354H285.565V171.49H288.295V167.354Z" fill="#A1D3F3"></path><path d="M292.883 147.164H290.153V151.301H292.883V147.164Z" fill="#FCFCFC"></path><path d="M292.883 177.982H290.153V182.119H292.883V177.982Z" fill="#FCFCFC"></path><path d="M288.295 183.305H285.565V187.441H288.295V183.305Z" fill="#FCFCFC"></path><path d="M292.883 183.305H290.153V187.441H292.883V183.305Z" fill="#A1D3F3"></path><path d="M283.627 188.619H280.897V192.756H283.627V188.619Z" fill="#CFE7F7"></path><path d="M292.883 193.934H290.153V198.07H292.883V193.934Z" fill="#FCFCFC"></path><path d="M93.1493 110.234H88.1211V111.778H93.1493V110.234Z" fill="#E4F1F9"></path><path d="M93.7897 111.443H87.4805V112.112H93.7897V111.443Z" fill="#E4F1F9"></path><path d="M95.3672 112.111H85.9033V123.368H95.3672V112.111Z" fill="#93CDF2"></path><path d="M54.6934 208.355V121.81L58.4004 127.49H68.5048V104.627H68.8971V127.49H70.9628V112.121H82.1001V127.49H83.9656V151.181H86.0634V208.355H54.6934Z" fill="#A1D3F3"></path><path d="M86.0877 131.5H73.229V208.356H86.0877V131.5Z" fill="#EDF5FA"></path><path d="M75.4509 179.369H76.5078V130.421H75.4509V179.369Z" fill="#9CD1F3"></path><path d="M77.7927 179.369H78.8496V130.421H77.7927V179.369Z" fill="#9CD1F3"></path><path d="M80.1423 179.369H81.1992V130.421H80.1423V179.369Z" fill="#9CD1F3"></path><path d="M82.492 179.369H83.5488V130.421H82.492V179.369Z" fill="#9CD1F3"></path><path d="M74.2575 208.361H97.4287L97.4287 76.9726H74.2575L74.2575 208.361Z" fill="#91CCF2"></path><path d="M76.0832 85.5801H85.2588V73.4086H76.0832V85.5801Z" fill="#93CDF2"></path><path d="M43.436 171.889H57.4557V125.414L43.436 171.889Z" fill="#E4F1F9"></path><path d="M37.4262 145.426H54.6484L54.6484 72.9695H37.4262L37.4262 145.426Z" fill="#91CCF2"></path><path d="M50.8663 75.6696L54.6534 72.9648H37.4312L50.8663 75.6696Z" fill="#FCFCFC"></path><path d="M56.0092 120.025H64.0078V119.254H56.0092V120.025Z" fill="#F8FAFB"></path><path d="M22.5708 208.356V72.7188H27.7831V93.0046H30.4413V85.1846H35.4455V78.2715H38.1117V85.1846H50.8262V120.347H58.5126V144.443H65.7346V165.914H68.1446V120.872L70.9309 101.628L80.7871 101.946L82.6926 114.73V208.356H22.5708Z" fill="#CFE7F7"></path><path d="M33.6198 93.0273H32.0024V207.71H33.6198V93.0273Z" fill="#91CCF2"></path><path d="M37.215 93.0273H35.5977V207.71H37.215V93.0273Z" fill="#91CCF2"></path><path d="M40.8175 150.711H39.2002V207.71H40.8175V150.711Z" fill="#91CCF2"></path><path d="M44.4128 150.711H42.7954V207.71H44.4128V150.711Z" fill="#91CCF2"></path><path d="M70.5449 102.787H77.9751V93.6784H70.5449V102.787Z" fill="#BADEF5"></path><path d="M48.472 148.023H37.623V208.356H48.472V148.023Z" fill="#91CCF2"></path><path d="M109.114 58.1289H89.4502V208.356H109.114V58.1289Z" fill="#A1D3F3"></path><path d="M114.977 49.5293H140.606V46.9279H114.977V49.5293Z" fill="#B5DCF5"></path><path d="M114.977 54.2852H140.606V51.6838H114.977V54.2852Z" fill="#B5DCF5"></path><path d="M114.977 59.0312H140.606V56.4299H114.977V59.0312Z" fill="#B5DCF5"></path><path d="M114.977 63.7871H140.606V61.1857H114.977V63.7871Z" fill="#B5DCF5"></path><path d="M114.977 68.5352H140.606V65.9338H114.977V68.5352Z" fill="#B5DCF5"></path><path d="M114.977 73.2891H140.606V70.6877H114.977V73.2891Z" fill="#B5DCF5"></path><path d="M114.977 78.0449H140.606V75.4436H114.977V78.0449Z" fill="#B5DCF5"></path><path d="M114.977 82.793H140.606V80.1916H114.977V82.793Z" fill="#B5DCF5"></path><path d="M114.977 87.5469H140.606V84.9455H114.977V87.5469Z" fill="#B5DCF5"></path><path d="M92.2363 208.355H138.098L138.539 43.7691L92.2363 38.2402V208.355Z" fill="#B5DCF5"></path><path d="M92.2363 208.355H101.54L102.068 43.4111L92.2363 38.2402V208.355Z" fill="#77C0EF"></path><path d="M102.068 43.4111L138.539 43.7691L92.2363 38.2402L102.068 43.4111Z" fill="#FCFCFC"></path><path d="M108.97 208.355V95.2715H127.834L137.978 107.387V208.355H108.97Z" fill="#A1D3F3"></path><path d="M137.978 107.387L127.834 95.2715H108.97L137.978 107.387Z" fill="#BADEF5"></path><path opacity="0.43" d="M122.269 126.328H120.884V208.363H122.269V126.328Z" fill="#E4F1F9"></path><path opacity="0.43" d="M125.352 126.328H123.967V208.363H125.352V126.328Z" fill="#E4F1F9"></path><path opacity="0.43" d="M128.434 126.328H127.049V208.363H128.434V126.328Z" fill="#E4F1F9"></path><path opacity="0.43" d="M131.525 126.328H130.14V208.363H131.525V126.328Z" fill="#E4F1F9"></path><path d="M103.681 208.359H114.971L114.971 129.141H103.681L103.681 208.359Z" fill="#CFE7F7"></path><path d="M137.42 208.359H145.939V106.691H137.42V208.359Z" fill="#CFE7F7"></path><path d="M84.2802 190.951H86.0737V186.719H84.2802V190.951Z" fill="#FCFCFC"></path><path d="M81.2715 190.553H83.0649V186.321H81.2715V190.553Z" fill="#A1D3F3"></path><path d="M87.3423 185.51H89.1357V181.278H87.3423V185.51Z" fill="#FCFCFC"></path><path d="M84.2802 180.074H86.0737V175.842H84.2802V180.074Z" fill="#CFE7F7"></path><path d="M84.2802 174.631H86.0737V170.399H84.2802V174.631Z" fill="#A1D3F3"></path><path d="M81.2715 174.631H83.0649V170.399H81.2715V174.631Z" fill="#FCFCFC"></path><path d="M87.3423 163.744H89.1357V159.512H87.3423V163.744Z" fill="#FCFCFC"></path><path d="M81.2715 163.744H83.0649V159.512H81.2715V163.744Z" fill="#FCFCFC"></path><path d="M84.2802 137.154H86.0737V132.922H84.2802V137.154Z" fill="#FCFCFC"></path><path d="M81.2715 136.746H83.0649V132.514H81.2715V136.746Z" fill="#A1D3F3"></path><path d="M87.3423 131.711H89.1357V127.479H87.3423V131.711Z" fill="#FCFCFC"></path><path d="M84.2802 126.268H86.0737V122.035H84.2802V126.268Z" fill="#CFE7F7"></path><path d="M84.2802 120.824H86.0737V116.592H84.2802V120.824Z" fill="#A1D3F3"></path><path d="M81.2715 120.824H83.0649V116.592H81.2715V120.824Z" fill="#FCFCFC"></path><path d="M87.3423 109.938H89.1357V105.705H87.3423V109.938Z" fill="#FCFCFC"></path><path d="M81.2715 109.938H83.0649V105.705H81.2715V109.938Z" fill="#FCFCFC"></path><path d="M84.2802 158.301H86.0737V154.069H84.2802V158.301Z" fill="#FCFCFC"></path><path d="M81.2715 158.301H83.0649V154.069H81.2715V158.301Z" fill="#A1D3F3"></path><path d="M87.3423 152.857H89.1357V148.625H87.3423V152.857Z" fill="#CFE7F7"></path><path d="M84.2802 147.414H86.0737V143.182H84.2802V147.414Z" fill="#CFE7F7"></path><path d="M81.2715 147.414H83.0649V143.182H81.2715V147.414Z" fill="#FCFCFC"></path><path d="M155.104 183.186H207.188C207.996 203.169 231.72 207.871 231.72 207.871H178.364C178.364 207.871 155.913 203.169 155.104 183.186Z" fill="#4E5683"></path><path d="M160.381 183.186H224.73C225.539 203.169 249.263 207.871 249.263 207.871H188.516C188.516 207.871 161.19 203.169 160.381 183.186Z" fill="url(#paint0_linear_2850_184518)"></path><path d="M91.0754 187.379H294.14C297.294 187.379 303.564 184.833 303.403 181.699L292.218 35.3461C292.058 32.2117 289.376 29.666 286.213 29.666H85.1985C82.0439 29.666 77.6082 33.0947 77.7684 36.237L85.0704 181.707C85.2306 184.833 87.9208 187.379 91.0754 187.379Z" fill="#4E5683"></path><path d="M93.8778 186.496H298.223C301.386 186.496 303.812 183.95 303.66 180.816L296.358 35.3461C296.197 32.2117 293.515 29.666 290.353 29.666H86.0072C82.8526 29.666 80.4186 32.2117 80.5707 35.3461L87.8728 180.816C88.0329 183.95 90.7231 186.496 93.8778 186.496Z" fill="#4E5683"></path><path d="M93.8778 186.495H298.223C301.386 186.495 303.812 183.949 303.66 180.815L302.459 156.854H86.6719L87.8729 180.815C88.033 183.949 90.7232 186.495 93.8778 186.495Z" fill="url(#paint1_linear_2850_184518)"></path><path d="M294.612 149.972L288.944 37.1191H88.1611L93.8298 149.972H294.612Z" fill="white"></path><path d="M252.689 87.8731H137.69C136.193 87.8731 134.984 86.6718 134.984 85.1842V72.2729C134.984 70.7852 136.193 69.584 137.69 69.584H252.689C254.187 69.584 255.396 70.7852 255.396 72.2729V85.1842C255.396 86.6718 254.187 87.8731 252.689 87.8731Z" stroke="#4E5683" stroke-miterlimit="10"></path><path opacity="0.3" d="M278.799 100.801C278.231 101.175 277.606 101.437 276.958 101.636C270.929 103.521 261.649 98.279 255.492 89.0747C249.335 79.8705 248.062 69.3378 252.145 64.5487C252.586 64.0317 253.066 63.5623 253.634 63.1884C259.447 59.346 270.12 64.7158 276.934 74.9144C283.747 85.113 284.612 96.9663 278.799 100.801Z" fill="white"></path><path d="M292.803 114.077C291.458 112.144 290.449 112.51 289.672 112.263C288.887 112.017 287.31 113.202 287.006 114.364C286.702 115.525 286.453 115.541 286.589 116.424C286.726 117.299 289.136 117.204 290.257 117.156C291.377 117.1 294.836 117.784 294.836 117.784L298.127 114.125L292.803 114.077Z" fill="#FEC4AD"></path><path d="M294.252 113.538C293.283 111.812 292.482 112.496 291.281 112.949C290.08 113.403 288.399 114.421 288.399 114.421C288.399 114.421 288.127 115.495 288.928 115.765C289.728 116.036 291.978 115.065 292.418 116.457C292.851 117.85 298.127 114.111 298.127 114.111L294.252 113.538Z" fill="#FEC4AD"></path><path d="M329.193 90.2122C325.662 89.7986 323.372 91.8271 321.482 100.737C319.985 107.785 316.79 113.028 316.79 113.028L295.092 113.394L293.699 117.706C293.699 117.706 315.269 121.795 319.865 121.182C326.214 120.331 329.521 109.543 332.643 101.143C334.853 95.1922 334.005 90.7771 329.193 90.2122Z" fill="#0F2E40"></path><path d="M304.564 81.1029C305.373 82.9962 305.934 84.8021 306.694 85.9715C307.455 87.1409 306.934 89.4559 306.646 90.498C306.35 91.5322 308.64 91.3174 308.64 91.3174C308.64 91.3174 310.057 92.4152 311.738 94.6984C312.483 95.7166 314.429 94.4279 315.758 93.9904C317.087 93.5608 317.639 91.9777 319.209 89.79C320.778 87.6023 321.194 83.9827 321.194 83.9827L319.185 76.5366L310.433 75.8047L304.564 81.1029Z" fill="#FEC4AD"></path><path d="M305.101 82.4163C302.531 82.9493 298.295 77.8181 304.412 75.8373C307.199 74.9383 313.035 70.6584 315.902 71.9233C318.768 73.1882 319.073 75.3838 319.073 75.3838C319.073 75.3838 320.706 74.8349 322.347 78.1284C323.989 81.4298 321.795 88.3588 322.107 90.2363L318.128 87.0383C318.128 87.0383 320.009 84.7153 319.129 82.7345C318.248 80.7536 315.157 80.7775 315.341 82.8459C315.526 84.9142 314.397 85.312 314.397 85.312C314.397 85.312 312.595 83.6096 312.963 82.281C313.652 79.807 309.481 77.4045 308.592 78.9796C307.711 80.5786 307.375 81.9469 305.101 82.4163Z" fill="#471A16"></path><path d="M326.11 88.8522C325.742 88.8841 325.47 88.884 325.357 88.8602C324.333 88.5977 317.911 86.5293 317.911 86.5293L316.694 93.7208C316.694 93.7208 325.382 99.9975 328.456 101.525C327.519 97.3325 326.703 93.1162 326.11 88.8522Z" fill="#FEC4AD"></path><path d="M324.693 87.8984L321.522 99.6085L324.373 101.494L327.752 88.4394L324.693 87.8984Z" fill="#133A50"></path><path d="M327.752 88.4384C327.752 88.4384 329.833 88.3986 332.652 88.3508C337.344 88.2713 346.519 92.0341 351.836 96.0754C360.347 102.559 369.29 119.806 369.29 119.806C369.29 119.806 365.847 123.044 360.419 125.024C354.99 127.005 349.378 127.546 349.378 127.546C349.378 127.546 340.674 114.301 333.797 112.789C326.919 111.278 322.691 106.322 322.691 106.322L327.752 88.4384Z" fill="#133A50"></path><path d="M369.298 119.807C371.724 126.083 371.22 134.007 369.29 139.687C367.737 144.253 364.686 153.903 363.005 163.29C362.02 168.787 367.617 184.435 373.71 197.386L367.088 200.966C367.088 200.966 349.177 174.364 349.177 166.496C349.177 158.628 349.385 127.547 349.385 127.547L369.298 119.807Z" fill="#0F2E40"></path><path d="M373.702 197.387L377.305 204.165L368.89 209.001H365.223L369.714 203.29L367.985 200.068L373.702 197.387Z" fill="#0F2E40"></path><path d="M368.698 120.705C371.124 126.982 370.315 134.818 368.69 140.585C367.056 146.361 352.004 163.035 351.147 167.633C349.386 177.068 342.396 199.756 342.396 199.756H334.83C334.83 199.756 338.865 174.355 338.865 166.487C338.865 158.62 348.785 128.438 348.785 128.438L368.698 120.705Z" fill="#133A50"></path><path d="M342.388 199.756L341.491 208.332L330.058 208.507L335.038 204.768L336.623 199.756H342.388Z" fill="#133A50"></path><path d="M284.644 108.676L281.913 110.936L275.132 102.742L277.862 100.482L284.644 108.676Z" fill="#133A50"></path><path d="M300.89 128.438L298.263 130.609C297.767 131.023 297.03 130.951 296.622 130.458L280.184 110.578C279.768 110.085 279.84 109.353 280.337 108.947L282.963 106.775C283.459 106.362 284.196 106.433 284.604 106.927L301.042 126.807C301.458 127.292 301.386 128.024 300.89 128.438Z" fill="#3776F4"></path><path d="M278.471 73.9049C270.584 62.1232 258.254 56.4909 250.92 61.3356C243.586 66.1803 244.034 79.6565 251.921 91.4462C259.807 103.236 272.138 108.86 279.472 104.015C286.806 99.1707 286.357 85.6945 278.471 73.9049ZM278.799 100.802C278.231 101.175 277.606 101.438 276.958 101.637C270.929 103.522 261.649 98.2797 255.492 89.0755C249.335 79.8713 248.062 69.3386 252.145 64.5495C252.585 64.0324 253.066 63.5631 253.634 63.1892C259.447 59.3468 270.12 64.7166 276.934 74.9152C283.747 85.1138 284.612 96.9671 278.799 100.802Z" fill="#3776F4"></path><path d="M276.941 74.9162C270.12 64.7255 259.455 59.3557 253.642 63.1902C253.074 63.5641 252.593 64.0334 252.153 64.5505C258.182 62.6651 267.462 67.9076 273.619 77.1118C279.776 86.316 281.049 96.8488 276.965 101.638C277.614 101.431 278.238 101.176 278.807 100.803C284.612 96.9681 283.755 85.1148 276.941 74.9162Z" fill="#133A50"></path><path d="M251.921 91.4387C244.034 79.657 243.586 66.1729 250.92 61.3281L247.253 63.7545C239.919 68.5992 240.367 82.0754 248.254 93.865C256.14 105.655 268.471 111.279 275.805 106.434L279.472 104.008C272.138 108.853 259.807 103.228 251.921 91.4387Z" fill="#133A50"></path><path d="M298.415 119.877C298.415 119.877 292.515 118.755 291.178 119.058C289.848 119.36 286.213 121.651 286.213 121.651L286.758 121.969L288.055 121.882L287.078 122.582L287.847 123.234L288.784 122.972L290.025 122.916L288.383 123.632L289.168 124.109L290.993 123.894L289.808 124.459L290.289 125.072L294.612 123.568L297.335 122.454L300.505 123.075L298.415 119.877Z" fill="#FEC4AD"></path><path d="M328.6 91.1118C325.221 89.998 322.763 92.5835 322.884 101.684C322.988 109.56 321.827 116.25 321.827 116.25L298.415 119.87L297.903 124.373C297.903 124.373 321.274 124.5 325.886 125.017C330.498 125.542 331.539 111.35 332.259 105.049C332.98 98.7568 333.204 92.6233 328.6 91.1118Z" fill="#133A50"></path><path d="M181.767 97.8008H140.925V100.474H181.767V97.8008Z" fill="#C9CDD8"></path><path d="M137.674 97.8008H134.952V100.474H137.674V97.8008Z" fill="#F7AF00"></path><path d="M137.674 103.465H134.952V106.138H137.674V103.465Z" fill="#F7AF00"></path><path d="M137.674 109.137H134.952V111.81H137.674V109.137Z" fill="#F7AF00"></path><path d="M175.481 103.465H140.925V106.138H175.481V103.465Z" fill="#C9CDD8"></path><path d="M191.639 109.137H140.925V111.81H191.639V109.137Z" fill="#C9CDD8"></path><path d="M187.147 114.801H140.925V117.474H187.147V114.801Z" fill="#C9CDD8"></path><path d="M179.725 126.789H160.245V128.126H179.725V126.789Z" fill="#F7AF00"></path><path d="M213.297 55.0176H180.91V61.4772H213.297V55.0176Z" fill="#3776F4"></path><path d="M231.472 125.461H218.461V128.134H231.472V125.461Z" fill="#F7AF00"></path><path d="M270.52 125.461H238.205V128.134H270.52V125.461Z" fill="#F7AF00"></path><path d="M0 208.141H444" stroke="#4E5683" stroke-miterlimit="10"></path></g><defs><linearGradient id="paint0_linear_2850_184518" x1="204.826" y1="183.184" x2="204.826" y2="207.869" gradientUnits="userSpaceOnUse"><stop stop-color="#EEF4FB"></stop><stop offset="0.3115" stop-color="#E3EDF8"></stop><stop offset="1" stop-color="#CFE1F3"></stop></linearGradient><linearGradient id="paint1_linear_2850_184518" x1="195.17" y1="156.848" x2="195.17" y2="186.494" gradientUnits="userSpaceOnUse"><stop stop-color="#EEF4FB"></stop><stop offset="0.3115" stop-color="#E3EDF8"></stop><stop offset="1" stop-color="#CFE1F3"></stop></linearGradient><clipPath id="clip0_2850_184518"><rect width="444" height="209" fill="white"></rect></clipPath></defs></svg>