<svg width="178" height="56" viewBox="0 0 178 56" fill="none" xmlns="http://www.w3.org/2000/svg">
<path d="M57.1094 33.6914C57.1094 34.4336 56.957 35.0039 56.6523 35.4023C56.3555 35.8008 55.8594 36 55.1641 36C54.5078 36 54.043 35.8008 53.7695 35.4023C53.5039 35.0039 53.3711 34.4336 53.3711 33.6914V21.3047C53.3711 20.5625 53.5039 19.9922 53.7695 19.5938C54.043 19.1953 54.5078 18.9961 55.1641 18.9961C55.8594 18.9961 56.3555 19.1953 56.6523 19.5938C56.957 19.9922 57.1094 20.5625 57.1094 21.3047V33.6914Z" fill="#09355D"/>
<path d="M58.2441 30.0938C58.2441 29.2656 58.3769 28.4844 58.6426 27.75C58.916 27.0078 59.3222 26.3594 59.8613 25.8047C60.4082 25.25 61.0879 24.8086 61.9004 24.4805C62.7207 24.1523 63.6816 23.9883 64.7832 23.9883C65.8379 23.9883 66.7715 24.1406 67.584 24.4453C68.3965 24.75 69.0801 25.1758 69.6347 25.7227C70.1894 26.2617 70.6113 26.9062 70.9004 27.6562C71.1894 28.3984 71.334 29.2109 71.334 30.0938C71.334 30.9141 71.1972 31.6914 70.9238 32.4258C70.6504 33.1523 70.2402 33.793 69.6933 34.3477C69.1465 34.8945 68.4629 35.332 67.6426 35.6602C66.8222 35.9805 65.8691 36.1406 64.7832 36.1406C63.7129 36.1406 62.7676 35.9883 61.9472 35.6836C61.1347 35.3711 60.4512 34.9453 59.8965 34.4062C59.3496 33.8594 58.9355 33.2188 58.6543 32.4844C58.3808 31.7422 58.2441 30.9453 58.2441 30.0938ZM62.1465 30.0938C62.1465 30.6094 62.1933 31.1016 62.2871 31.5703C62.3808 32.0312 62.5293 32.4375 62.7324 32.7891C62.9433 33.1406 63.2168 33.4219 63.5527 33.6328C63.8887 33.8359 64.2988 33.9375 64.7832 33.9375C65.2285 33.9375 65.6152 33.8438 65.9433 33.6562C66.2793 33.4688 66.5527 33.207 66.7637 32.8711C66.9824 32.5352 67.1465 32.1328 67.2558 31.6641C67.3652 31.1875 67.4199 30.6641 67.4199 30.0938C67.4199 29.5781 67.3691 29.0898 67.2676 28.6289C67.1738 28.1602 67.0215 27.75 66.8105 27.3984C66.5996 27.0391 66.3262 26.7578 65.9902 26.5547C65.6621 26.3438 65.2597 26.2383 64.7832 26.2383C64.3066 26.2383 63.9004 26.3398 63.5644 26.543C63.2285 26.7461 62.9551 27.0234 62.7441 27.375C62.5332 27.7266 62.3808 28.1367 62.2871 28.6055C62.1933 29.0742 62.1465 29.5703 62.1465 30.0938Z" fill="#09355D"/>
<path d="M80.9532 33.7383C80.7422 34.1289 80.4844 34.4609 80.1797 34.7344C79.8829 35.0078 79.5508 35.2344 79.1837 35.4141C78.8243 35.5859 78.4376 35.7148 78.0235 35.8008C77.6172 35.8789 77.1993 35.918 76.7696 35.918C76.0508 35.918 75.3946 35.7891 74.8008 35.5312C74.2071 35.2734 73.6954 34.9023 73.2657 34.418C72.8438 33.9258 72.5157 33.3242 72.2813 32.6133C72.0469 31.9023 71.9297 31.0898 71.9297 30.1758C71.9297 29.3164 72.0391 28.5117 72.2579 27.7617C72.4766 27.0117 72.793 26.3594 73.2071 25.8047C73.629 25.25 74.1446 24.8125 74.754 24.4922C75.3633 24.1719 76.0587 24.0117 76.8399 24.0117C77.7305 24.0117 78.5196 24.1836 79.2071 24.5273C79.9024 24.8711 80.5001 25.4336 81.0001 26.2148V25.9102C81.0001 25.3477 81.1524 24.9258 81.4571 24.6445C81.7696 24.3555 82.1993 24.2109 82.7462 24.2109C83.0743 24.2109 83.3516 24.2656 83.5782 24.375C83.8047 24.4766 83.9844 24.6328 84.1172 24.8438C84.2501 25.0469 84.3438 25.3008 84.3985 25.6055C84.461 25.9023 84.4922 26.2422 84.4922 26.625V34.4766C84.4922 35.4297 84.3712 36.2812 84.129 37.0312C83.8946 37.7812 83.5274 38.4141 83.0274 38.9297C82.5274 39.4453 81.8868 39.8359 81.1055 40.1016C80.3243 40.375 79.3946 40.5117 78.3165 40.5117C77.5587 40.5117 76.8868 40.4766 76.3008 40.4062C75.7227 40.3438 75.2227 40.2461 74.8008 40.1133C74.379 39.9648 74.0587 39.8008 73.8399 39.6211C73.629 39.4414 73.5235 39.207 73.5235 38.918C73.5235 38.7539 73.5469 38.5977 73.5938 38.4492C73.6407 38.3008 73.711 38.168 73.8047 38.0508C73.9063 37.9414 74.0352 37.8516 74.1915 37.7812C74.3555 37.7188 74.5547 37.6875 74.7891 37.6875C75.0391 37.6875 75.2891 37.7031 75.5391 37.7344C75.7969 37.7656 76.0626 37.7969 76.336 37.8281C76.6172 37.8672 76.9102 37.9023 77.2149 37.9336C77.5274 37.9648 77.8633 37.9805 78.2227 37.9805C78.6524 37.9805 79.0352 37.9375 79.3712 37.8516C79.7071 37.7656 79.9922 37.6133 80.2266 37.3945C80.461 37.1758 80.6407 36.8828 80.7657 36.5156C80.8907 36.1562 80.9532 35.6953 80.9532 35.1328V33.7383ZM80.9532 30.0938C80.9532 29.5234 80.9102 29.0039 80.8243 28.5352C80.7462 28.0664 80.6094 27.668 80.4141 27.3398C80.2188 27.0039 79.9571 26.7461 79.629 26.5664C79.3008 26.3789 78.8907 26.2852 78.3985 26.2852C77.9141 26.2852 77.5118 26.3828 77.1915 26.5781C76.879 26.7734 76.629 27.043 76.4415 27.3867C76.254 27.7305 76.1212 28.1328 76.043 28.5938C75.9727 29.0547 75.9376 29.5469 75.9376 30.0703C75.9376 31.2656 76.1485 32.1641 76.5704 32.7656C76.9922 33.3672 77.6055 33.668 78.4102 33.668C78.7852 33.6602 79.1251 33.5898 79.4297 33.457C79.7422 33.3164 80.0118 33.1016 80.2383 32.8125C80.4649 32.5234 80.6407 32.1562 80.7657 31.7109C80.8907 31.2656 80.9532 30.7266 80.9532 30.0938Z" fill="#09355D"/>
<path d="M85.5686 30.0938C85.5686 29.2656 85.7014 28.4844 85.967 27.75C86.2405 27.0078 86.6467 26.3594 87.1858 25.8047C87.7327 25.25 88.4123 24.8086 89.2248 24.4805C90.0452 24.1523 91.0061 23.9883 92.1077 23.9883C93.1623 23.9883 94.0959 24.1406 94.9084 24.4453C95.7209 24.75 96.4045 25.1758 96.9592 25.7227C97.5139 26.2617 97.9358 26.9062 98.2248 27.6562C98.5139 28.3984 98.6584 29.2109 98.6584 30.0938C98.6584 30.9141 98.5217 31.6914 98.2483 32.4258C97.9748 33.1523 97.5647 33.793 97.0178 34.3477C96.4709 34.8945 95.7873 35.332 94.967 35.6602C94.1467 35.9805 93.1936 36.1406 92.1077 36.1406C91.0373 36.1406 90.092 35.9883 89.2717 35.6836C88.4592 35.3711 87.7756 34.9453 87.2209 34.4062C86.6741 33.8594 86.26 33.2188 85.9787 32.4844C85.7053 31.7422 85.5686 30.9453 85.5686 30.0938ZM89.4709 30.0938C89.4709 30.6094 89.5178 31.1016 89.6116 31.5703C89.7053 32.0312 89.8537 32.4375 90.0569 32.7891C90.2678 33.1406 90.5412 33.4219 90.8772 33.6328C91.2131 33.8359 91.6233 33.9375 92.1077 33.9375C92.553 33.9375 92.9397 33.8438 93.2678 33.6562C93.6037 33.4688 93.8772 33.207 94.0881 32.8711C94.3069 32.5352 94.4709 32.1328 94.5803 31.6641C94.6897 31.1875 94.7444 30.6641 94.7444 30.0938C94.7444 29.5781 94.6936 29.0898 94.592 28.6289C94.4983 28.1602 94.3459 27.75 94.135 27.3984C93.9241 27.0391 93.6506 26.7578 93.3147 26.5547C92.9866 26.3438 92.5842 26.2383 92.1077 26.2383C91.6311 26.2383 91.2248 26.3398 90.8889 26.543C90.553 26.7461 90.2795 27.0234 90.0686 27.375C89.8577 27.7266 89.7053 28.1367 89.6116 28.6055C89.5178 29.0742 89.4709 29.5703 89.4709 30.0938Z" fill="#09355D"/>
<path d="M103.684 20.0391C103.684 20.2969 103.625 20.5273 103.508 20.7305C103.391 20.9258 103.239 21.0898 103.051 21.2227C102.864 21.3555 102.645 21.457 102.395 21.5273C102.153 21.5898 101.903 21.6211 101.645 21.6211C101.371 21.6211 101.11 21.5859 100.86 21.5156C100.617 21.4453 100.403 21.3438 100.215 21.2109C100.028 21.0703 99.8791 20.9023 99.7697 20.707C99.6604 20.5117 99.6057 20.2891 99.6057 20.0391C99.6057 19.8125 99.6565 19.6055 99.758 19.418C99.8674 19.2227 100.012 19.0547 100.192 18.9141C100.371 18.7734 100.586 18.6641 100.836 18.5859C101.086 18.5078 101.36 18.4688 101.657 18.4688C101.914 18.4688 102.164 18.5039 102.407 18.5742C102.657 18.6445 102.875 18.7461 103.063 18.8789C103.25 19.0117 103.399 19.1758 103.508 19.3711C103.625 19.5664 103.684 19.7891 103.684 20.0391ZM103.508 33.6914C103.508 34.4336 103.356 35.0039 103.051 35.4023C102.754 35.8008 102.258 36 101.563 36C100.907 36 100.442 35.8008 100.168 35.4023C99.9026 35.0039 99.7697 34.4336 99.7697 33.6914V26.5195C99.7697 25.7773 99.9026 25.207 100.168 24.8086C100.442 24.4102 100.907 24.2109 101.563 24.2109C102.258 24.2109 102.754 24.4102 103.051 24.8086C103.356 25.207 103.508 25.7773 103.508 26.5195V33.6914Z" fill="#09355D"/>
<path d="M108.897 30.0703C108.897 30.5938 108.936 31.082 109.014 31.5352C109.1 31.9883 109.241 32.3867 109.436 32.7305C109.639 33.0664 109.905 33.332 110.233 33.5273C110.569 33.7227 110.983 33.8203 111.475 33.8203C111.928 33.8203 112.307 33.7266 112.612 33.5391C112.924 33.3438 113.174 33.0781 113.362 32.7422C113.549 32.3984 113.682 31.9961 113.76 31.5352C113.846 31.0742 113.889 30.5742 113.889 30.0352C113.889 29.6055 113.858 29.168 113.795 28.7227C113.733 28.2695 113.616 27.8594 113.444 27.4922C113.272 27.125 113.034 26.8242 112.729 26.5898C112.424 26.3555 112.026 26.2383 111.534 26.2383C111.041 26.2383 110.623 26.3164 110.28 26.4727C109.944 26.6289 109.67 26.8672 109.459 27.1875C109.256 27.5078 109.112 27.9102 109.026 28.3945C108.94 28.8711 108.897 29.4297 108.897 30.0703ZM108.885 26.5195C109.081 26.1055 109.331 25.7422 109.635 25.4297C109.94 25.1172 110.276 24.8555 110.643 24.6445C111.01 24.4336 111.393 24.2773 111.791 24.1758C112.198 24.0664 112.6 24.0117 112.998 24.0117C113.717 24.0117 114.366 24.1719 114.944 24.4922C115.522 24.8125 116.014 25.25 116.42 25.8047C116.834 26.3516 117.151 27 117.37 27.75C117.588 28.4922 117.698 29.2891 117.698 30.1406C117.698 31.0234 117.58 31.832 117.346 32.5664C117.12 33.3008 116.795 33.9336 116.373 34.4648C115.959 34.9883 115.459 35.3984 114.873 35.6953C114.295 35.9922 113.651 36.1406 112.94 36.1406C112.065 36.1406 111.284 35.9375 110.596 35.5312C109.909 35.125 109.338 34.5547 108.885 33.8203V38.0391C108.885 38.7812 108.733 39.3516 108.428 39.75C108.131 40.1484 107.635 40.3477 106.94 40.3477C106.284 40.3477 105.819 40.1484 105.545 39.75C105.28 39.3516 105.147 38.7812 105.147 38.0391V26.5195C105.147 25.7773 105.28 25.207 105.545 24.8086C105.819 24.4102 106.284 24.2109 106.94 24.2109C107.635 24.2109 108.131 24.4102 108.428 24.8086C108.733 25.207 108.885 25.7773 108.885 26.5195Z" fill="#09355D"/>
<path d="M121.821 27.3516C121.821 27.6562 121.954 27.8945 122.219 28.0664C122.485 28.2305 122.852 28.3672 123.321 28.4766C123.766 28.5781 124.223 28.6758 124.692 28.7695C125.161 28.8633 125.618 28.9727 126.063 29.0977C126.508 29.2148 126.926 29.3555 127.317 29.5195C127.707 29.6836 128.051 29.8906 128.348 30.1406C128.645 30.3828 128.879 30.6797 129.051 31.0312C129.223 31.375 129.309 31.7891 129.309 32.2734C129.309 32.8828 129.184 33.4258 128.934 33.9023C128.684 34.3711 128.329 34.7695 127.868 35.0977C127.415 35.4258 126.872 35.6797 126.239 35.8594C125.606 36.0391 124.907 36.1328 124.141 36.1406C123.415 36.1406 122.715 36.0938 122.043 36C121.372 35.9141 120.774 35.7773 120.25 35.5898C119.735 35.4023 119.321 35.1719 119.008 34.8984C118.696 34.6172 118.54 34.2891 118.54 33.9141C118.54 33.5859 118.645 33.332 118.856 33.1523C119.067 32.9727 119.336 32.8828 119.665 32.8828C119.79 32.8828 119.938 32.9062 120.11 32.9531C120.282 33 120.469 33.0586 120.672 33.1289C120.875 33.1992 121.09 33.2773 121.317 33.3633C121.551 33.4414 121.793 33.5117 122.043 33.5742C122.356 33.6602 122.676 33.7305 123.004 33.7852C123.34 33.832 123.684 33.8555 124.036 33.8555C124.254 33.8555 124.469 33.8359 124.68 33.7969C124.891 33.75 125.079 33.6836 125.243 33.5977C125.415 33.5039 125.555 33.3867 125.665 33.2461C125.774 33.1055 125.84 32.9336 125.864 32.7305C125.887 32.6836 125.907 32.6367 125.922 32.5898C125.938 32.543 125.946 32.4883 125.946 32.4258C125.946 32.207 125.844 32.0117 125.641 31.8398C125.446 31.668 125.168 31.5312 124.809 31.4297C124.207 31.2891 123.633 31.1602 123.086 31.043C122.54 30.9258 122.032 30.8008 121.563 30.668C121.102 30.5352 120.68 30.3828 120.297 30.2109C119.922 30.0391 119.602 29.8281 119.336 29.5781C119.079 29.3281 118.875 29.0273 118.727 28.6758C118.586 28.3242 118.516 27.8984 118.516 27.3984C118.516 26.8594 118.637 26.3789 118.879 25.957C119.129 25.5273 119.485 25.168 119.946 24.8789C120.407 24.5898 120.965 24.3711 121.622 24.2227C122.278 24.0664 123.02 23.9883 123.848 23.9883C125.332 23.9883 126.461 24.168 127.235 24.5273C128.016 24.8789 128.407 25.3398 128.407 25.9102C128.407 26.2305 128.301 26.4766 128.09 26.6484C127.879 26.8125 127.625 26.8945 127.329 26.8945C127.172 26.8945 127.008 26.8672 126.836 26.8125C126.672 26.75 126.473 26.6836 126.239 26.6133C126.004 26.5352 125.723 26.4688 125.395 26.4141C125.075 26.3516 124.676 26.3203 124.2 26.3203C123.84 26.3203 123.512 26.3359 123.215 26.3672C122.926 26.3984 122.676 26.4531 122.465 26.5312C122.262 26.6094 122.102 26.7148 121.985 26.8477C121.875 26.9805 121.821 27.1484 121.821 27.3516Z" fill="#09355D"/>
<path d="M134.065 31.6523C134.065 32.0195 134.112 32.3398 134.206 32.6133C134.307 32.8867 134.444 33.1172 134.616 33.3047C134.788 33.4844 134.987 33.6211 135.213 33.7148C135.448 33.8008 135.698 33.8438 135.963 33.8438C136.276 33.8438 136.577 33.7969 136.866 33.7031C137.155 33.6094 137.409 33.4648 137.628 33.2695C137.854 33.0742 138.034 32.8281 138.167 32.5312C138.299 32.2344 138.366 31.8867 138.366 31.4883V26.5195C138.366 25.7773 138.499 25.207 138.764 24.8086C139.038 24.4102 139.503 24.2109 140.159 24.2109C140.854 24.2109 141.35 24.4102 141.647 24.8086C141.952 25.207 142.104 25.7773 142.104 26.5195V33.6914C142.104 34.4336 141.952 35.0039 141.647 35.4023C141.35 35.8008 140.854 36 140.159 36C139.503 36 139.038 35.8008 138.764 35.4023C138.499 35.0039 138.366 34.4336 138.366 33.6914C138.202 34.0508 137.987 34.3789 137.721 34.6758C137.463 34.9727 137.159 35.2305 136.807 35.4492C136.463 35.6602 136.081 35.8242 135.659 35.9414C135.245 36.0586 134.795 36.1172 134.311 36.1172C133.788 36.1172 133.284 36.0273 132.799 35.8477C132.323 35.6602 131.901 35.3867 131.534 35.0273C131.167 34.6602 130.874 34.207 130.655 33.668C130.436 33.1289 130.327 32.5 130.327 31.7812V26.5195C130.327 25.7773 130.46 25.207 130.725 24.8086C130.999 24.4102 131.463 24.2109 132.12 24.2109C132.815 24.2109 133.311 24.4102 133.608 24.8086C133.913 25.207 134.065 25.7773 134.065 26.5195V31.6523Z" fill="#09355D"/>
<path d="M143.801 26.5195C143.801 25.7773 143.934 25.207 144.2 24.8086C144.473 24.4102 144.938 24.2109 145.594 24.2109C146.29 24.2109 146.786 24.4102 147.083 24.8086C147.387 25.207 147.54 25.7773 147.54 26.5195C147.696 26.1445 147.907 25.8047 148.173 25.5C148.446 25.1875 148.755 24.9219 149.098 24.7031C149.45 24.4844 149.829 24.3164 150.235 24.1992C150.641 24.0742 151.063 24.0117 151.501 24.0117C151.907 24.0117 152.305 24.0664 152.696 24.1758C153.094 24.2773 153.462 24.4453 153.798 24.6797C154.141 24.9062 154.442 25.1953 154.7 25.5469C154.958 25.8984 155.157 26.3203 155.298 26.8125C155.54 26.2891 155.825 25.8477 156.153 25.4883C156.481 25.1289 156.837 24.8398 157.219 24.6211C157.602 24.4023 158.001 24.2461 158.415 24.1523C158.837 24.0586 159.258 24.0117 159.68 24.0117C160.18 24.0117 160.657 24.1016 161.11 24.2812C161.571 24.4609 161.973 24.7344 162.317 25.1016C162.669 25.4609 162.946 25.918 163.149 26.4727C163.36 27.0195 163.465 27.6602 163.465 28.3945V33.6914C163.465 34.4336 163.313 35.0039 163.008 35.4023C162.712 35.8008 162.215 36 161.52 36C160.864 36 160.399 35.8008 160.126 35.4023C159.86 35.0039 159.727 34.4336 159.727 33.6914V28.5586C159.727 28.207 159.68 27.8945 159.587 27.6211C159.493 27.3398 159.36 27.1055 159.188 26.918C159.024 26.7227 158.829 26.5781 158.602 26.4844C158.376 26.3828 158.133 26.332 157.876 26.332C157.555 26.332 157.251 26.3828 156.962 26.4844C156.673 26.5859 156.419 26.7422 156.2 26.9531C155.989 27.1641 155.817 27.4336 155.684 27.7617C155.559 28.0898 155.497 28.4844 155.497 28.9453V33.6914C155.497 34.4336 155.344 35.0039 155.04 35.4023C154.743 35.8008 154.247 36 153.551 36C152.895 36 152.43 35.8008 152.157 35.4023C151.891 35.0039 151.758 34.4336 151.758 33.6914V28.7812C151.758 27.9766 151.59 27.3672 151.255 26.9531C150.926 26.5391 150.477 26.332 149.907 26.332C149.571 26.332 149.258 26.3867 148.969 26.4961C148.68 26.6055 148.43 26.7656 148.219 26.9766C148.008 27.1875 147.84 27.4492 147.715 27.7617C147.598 28.0742 147.54 28.4336 147.54 28.8398V33.6914C147.54 34.4336 147.387 35.0039 147.083 35.4023C146.786 35.8008 146.29 36 145.594 36C144.938 36 144.473 35.8008 144.2 35.4023C143.934 35.0039 143.801 34.4336 143.801 33.6914V26.5195Z" fill="#09355D"/>
<path d="M29 34C25.6863 34 23 31.3137 23 28C23 24.6863 25.6863 22 29 22C32.3137 22 35 24.6863 35 28C35 31.3137 32.3137 34 29 34Z" fill="#51A3EE"/>
<path d="M17.3763 30.0495C15.6375 30.3561 14.4457 32.0357 15.1132 33.6703C16.045 35.9523 17.5316 37.9855 19.4589 39.5743C22.2149 41.846 25.6909 43.0599 29.2619 42.9976C32.8329 42.9353 36.2645 41.6008 38.9395 39.2342C40.8101 37.5792 42.2249 35.4953 43.0766 33.1822C43.6866 31.5253 42.4368 29.8883 40.6884 29.6426C38.9401 29.3969 37.3703 30.6695 36.5067 32.2095C36.0386 33.0442 35.4309 33.8015 34.7029 34.4456C33.1681 35.8035 31.1992 36.5691 29.1504 36.6049C27.1015 36.6406 25.1071 35.9442 23.5259 34.6407C22.7758 34.0224 22.1421 33.2868 21.6451 32.4689C20.7283 30.96 19.115 29.7429 17.3763 30.0495Z" fill="#51A3EE"/>
<path d="M43.884 29.8745C43.9606 29.2604 44 28.6348 44 28C44 19.7157 37.2843 13 29 13C20.7157 13 14 19.7157 14 28C14 28.8147 14.065 29.6142 14.19 30.3937C14.8789 29.4505 15.9543 28.7772 17.1158 28.5724C18.3724 28.3508 19.5146 28.6556 20.4803 29.2253C20.4232 28.8251 20.3937 28.416 20.3937 28C20.3937 23.2469 24.2469 19.3937 29 19.3937C33.7531 19.3937 37.6063 23.2469 37.6063 28C37.6063 28.3134 37.5895 28.6229 37.5569 28.9276C38.5022 28.3243 39.6332 27.9796 40.8971 28.1573C42.0647 28.3214 43.1625 28.9564 43.884 29.8745Z" fill="#0E4F8B"/>
</svg>
