<svg width="201" height="56" viewBox="0 0 201 56" fill="none" xmlns="http://www.w3.org/2000/svg">
<path d="M38.9219 39.0947L15.9119 23.4197C13.5801 21.8313 14.3727 18.524 17.2804 17.7463L41.7359 11.1913C42.2539 11.0067 42.8091 10.9468 43.3553 11.0165C43.9015 11.0862 44.423 11.2836 44.8765 11.5922C45.3299 11.9009 45.7024 12.3119 45.9627 12.7911C46.2231 13.2704 46.3641 13.804 46.3738 14.3478L44.9245 36.5766C44.7526 39.2151 41.2536 40.6831 38.9219 39.0947Z" fill="#E9327C"/>
<path d="M31.6239 42.9645L18.068 16.7838C17.7581 16.1848 17.6218 15.513 17.674 14.8424C17.7262 14.1718 17.9649 13.5284 18.3638 12.9833C18.7627 12.4382 19.3063 12.0124 19.9347 11.753C20.563 11.4936 21.2517 11.4106 21.9248 11.5132L47.0473 15.3423C47.6256 15.4305 48.1746 15.653 48.649 15.9915C49.1233 16.33 49.5095 16.7749 49.7759 17.2896C50.0422 17.8042 50.1811 18.3739 50.181 18.9519C50.1808 19.5299 50.0418 20.0996 49.7754 20.6142L38.2024 42.9657C37.8916 43.563 37.4202 44.064 36.8398 44.4138C36.2594 44.7636 35.5927 44.9486 34.9128 44.9484C34.2329 44.9483 33.5662 44.7631 32.9859 44.4131C32.4057 44.063 31.9344 43.5618 31.6239 42.9645Z" fill="#1DACE3"/>
<path d="M46.3124 15.2294L33.789 13.3206L18.4131 17.4436L24.5504 29.3008L38.922 39.0947C39.2391 39.3084 39.5878 39.472 39.9558 39.5798L45.4146 29.0373L46.3124 15.2294Z" fill="#001A49"/>
<path d="M109.746 18.2897C109.746 17.83 109.884 17.3806 110.143 16.9983C110.402 16.6161 110.769 16.3182 111.199 16.1423C111.629 15.9663 112.102 15.9203 112.559 16.01C113.016 16.0997 113.435 16.3211 113.764 16.6461C114.093 16.9712 114.317 17.3853 114.408 17.8362C114.499 18.2871 114.452 18.7544 114.274 19.1792C114.096 19.6039 113.795 19.9669 113.408 20.2223C113.02 20.4777 112.565 20.614 112.1 20.614C111.478 20.6077 110.883 20.3608 110.443 19.9263C110.003 19.4917 109.753 18.9042 109.746 18.2897ZM110.139 21.7502H114.062V34.6626H110.139V21.7502Z" fill="#001A49"/>
<path d="M131.005 28.2065C131.051 29.06 130.925 29.914 130.635 30.7193C130.346 31.5246 129.897 32.2654 129.317 32.8992C128.736 33.5327 128.034 34.0468 127.252 34.4117C126.469 34.7765 125.621 34.985 124.757 35.025C124.029 35.064 123.303 34.9429 122.629 34.6705C121.955 34.3979 121.351 33.9808 120.86 33.4493V39.8282H116.938V21.7503H120.86V22.9638C121.351 22.4324 121.955 22.0156 122.629 21.7432C123.303 21.471 124.03 21.3501 124.757 21.3893C125.621 21.4292 126.469 21.6375 127.251 22.0022C128.034 22.367 128.736 22.8808 129.317 23.5144C129.897 24.148 130.346 24.8886 130.635 25.694C130.925 26.4992 131.051 27.3531 131.005 28.2065ZM127.083 28.2065C127.068 27.602 126.872 27.0154 126.521 26.52C126.17 26.0247 125.678 25.6427 125.108 25.4219C124.538 25.201 123.915 25.1512 123.316 25.2785C122.717 25.4058 122.17 25.7046 121.743 26.1376C121.315 26.5705 121.026 27.1185 120.913 27.7127C120.799 28.3069 120.865 28.9211 121.103 29.4783C121.341 30.0355 121.74 30.511 122.25 30.8454C122.761 31.1798 123.359 31.358 123.972 31.358C124.392 31.3767 124.812 31.3073 125.203 31.1546C125.595 31.0017 125.949 30.7687 126.243 30.4712C126.537 30.1735 126.763 29.818 126.908 29.4276C127.053 29.0373 127.113 28.6211 127.083 28.2065Z" fill="#001A49"/>
<path d="M143.112 30.7866C143.112 33.757 140.497 35.0224 137.673 35.0224C136.532 35.1243 135.386 34.8858 134.384 34.3377C133.382 33.7898 132.569 32.9573 132.051 31.9482L135.45 30.038C135.588 30.5046 135.884 30.91 136.289 31.1867C136.693 31.4633 137.182 31.5944 137.673 31.558C138.614 31.558 139.084 31.273 139.084 30.7575C139.084 29.3363 132.651 30.0862 132.651 25.6174C132.651 22.8028 135.056 21.3829 137.782 21.3829C138.804 21.3512 139.816 21.5908 140.712 22.0767C141.61 22.5626 142.358 23.277 142.88 24.1455L139.534 25.9277C139.387 25.5887 139.143 25.2998 138.832 25.0972C138.52 24.8944 138.155 24.7868 137.782 24.7877C137.102 24.7877 136.684 25.041 136.684 25.511C136.68 26.993 143.112 26.0113 143.112 30.7866Z" fill="#001A49"/>
<path d="M157.448 21.7502V34.6626H153.526V33.4466C153.073 33.9823 152.497 34.4044 151.847 34.6784C151.198 34.9522 150.491 35.0701 149.786 35.0224C147.145 35.0224 144.896 33.1629 144.896 29.6758V21.7502H148.818V29.1108C148.785 29.4186 148.821 29.7299 148.922 30.0227C149.024 30.3156 149.188 30.5832 149.405 30.8069C149.621 31.0306 149.884 31.2049 150.175 31.3178C150.468 31.4307 150.781 31.4794 151.094 31.4605C152.532 31.4605 153.531 30.6346 153.531 28.8005V21.7502H157.448Z" fill="#001A49"/>
<path d="M179.929 26.7333V34.6627H176.007V27.0703C176.007 25.7795 175.379 24.9524 174.124 24.9524C172.816 24.9524 172.085 25.8568 172.085 27.3806V34.6627H168.161V27.0703C168.161 25.7795 167.534 24.9524 166.278 24.9524C164.971 24.9524 164.239 25.8568 164.239 27.3806V34.6627H160.317V21.7503H164.246V22.9333C164.652 22.4065 165.186 21.9888 165.797 21.7181C166.409 21.4475 167.081 21.3327 167.75 21.3842C168.42 21.3518 169.09 21.4917 169.69 21.7903C170.29 22.0889 170.802 22.5359 171.175 23.0879C171.61 22.5104 172.186 22.0511 172.849 21.7532C173.512 21.4552 174.242 21.3283 174.968 21.3842C177.969 21.3893 179.929 23.5059 179.929 26.7333Z" fill="#001A49"/>
<path d="M183.253 21.6706C184.861 21.6706 186.164 20.3833 186.164 18.7953C186.164 17.2073 184.861 15.9199 183.253 15.9199C181.644 15.9199 180.341 17.2073 180.341 18.7953C180.341 20.3833 181.644 21.6706 183.253 21.6706Z" fill="#001A49"/>
<path d="M56.1948 15.8108H60.1183V34.6627H56.1948V15.8108ZM62.3398 28.2065C62.3356 26.8526 62.7381 25.5281 63.4965 24.4005C64.2549 23.2728 65.3351 22.3927 66.6002 21.8717C67.8655 21.3507 69.2587 21.2122 70.6038 21.4737C71.9487 21.7352 73.1849 22.3849 74.1557 23.3407C75.1265 24.2964 75.7883 25.515 76.0573 26.8425C76.3263 28.17 76.1904 29.5463 75.6669 30.7974C75.1433 32.0485 74.2556 33.1181 73.1161 33.8706C71.9767 34.6231 70.6367 35.0249 69.2659 35.0249C68.3555 35.0344 67.4523 34.8648 66.609 34.5259C65.7658 34.1869 64.9993 33.6853 64.3545 33.0506C63.7096 32.4157 63.1994 31.6604 62.8535 30.8287C62.5076 29.997 62.333 29.1055 62.3398 28.2065ZM72.2775 28.2065C72.2621 27.6224 72.0727 27.0559 71.733 26.5778C71.3933 26.0996 70.9184 25.7309 70.3676 25.5178C69.8168 25.3049 69.2147 25.2569 68.6365 25.3801C68.0583 25.5033 67.5297 25.7922 67.1169 26.2104C66.704 26.6288 66.4253 27.158 66.3154 27.732C66.2056 28.306 66.2695 28.8992 66.4993 29.4375C66.729 29.9757 67.1144 30.4352 67.6072 30.7583C68.1 31.0814 68.6783 31.2538 69.2697 31.2541C69.6748 31.2655 70.0779 31.1938 70.4535 31.0437C70.8291 30.8937 71.1692 30.6683 71.4522 30.382C71.7353 30.0957 71.9553 29.7546 72.0981 29.3801C72.241 29.0056 72.3039 28.606 72.2826 28.2065H72.2775ZM91.8359 21.7465V34.0141C91.8359 38.3525 88.4101 40.1853 84.933 40.1853C83.7091 40.2765 82.4833 40.0332 81.39 39.4819C80.2968 38.9308 79.3784 38.0929 78.7354 37.0605L82.0817 35.1491C82.3518 35.6879 82.7821 36.1325 83.3151 36.4234C83.848 36.7143 84.458 36.8375 85.0638 36.7767C85.4505 36.8288 85.844 36.7946 86.2154 36.6764C86.5869 36.5582 86.9266 36.3594 87.2098 36.0941C87.4929 35.829 87.7121 35.5045 87.8513 35.1444C87.9904 34.7844 88.046 34.398 88.0138 34.0141V32.826C87.5543 33.3808 86.9696 33.8216 86.3066 34.113C85.6435 34.4045 84.9205 34.5385 84.1954 34.5043C82.4697 34.4512 80.8325 33.737 79.6306 32.5126C78.4288 31.2883 77.7568 29.6501 77.7568 27.9449C77.7568 26.2396 78.4288 24.6014 79.6306 23.377C80.8325 22.1527 82.4697 21.4384 84.1954 21.3854C84.9205 21.3511 85.6435 21.4851 86.3066 21.7766C86.9696 22.0681 87.5543 22.5089 88.0138 23.0638V21.7465H91.8359ZM88.0189 27.9443C88.0448 27.3205 87.8812 26.7036 87.5491 26.1724C87.217 25.6413 86.7317 25.2204 86.1554 24.9639C85.5793 24.7074 84.9385 24.627 84.3156 24.733C83.6928 24.839 83.1163 25.1266 82.6602 25.5587C82.2041 25.9909 81.8893 26.5479 81.7564 27.158C81.6234 27.7683 81.6783 28.4038 81.9141 28.983C82.1497 29.5622 82.5555 30.0584 83.0791 30.408C83.6026 30.7576 84.2202 30.9446 84.8521 30.945C85.2642 30.9735 85.6779 30.9166 86.0664 30.7779C86.4549 30.6392 86.8097 30.4217 87.108 30.1394C87.4062 29.8572 87.6414 29.5163 87.7983 29.139C87.9552 28.7615 88.0303 28.3558 88.0189 27.9481V27.9443ZM94.0574 28.1976C94.0532 26.8438 94.4557 25.5192 95.2141 24.3916C95.9725 23.2639 97.0527 22.3838 98.3179 21.8629C99.5832 21.3419 100.976 21.2033 102.321 21.4648C103.666 21.7263 104.902 22.376 105.873 23.3318C106.844 24.2875 107.506 25.5062 107.775 26.8336C108.044 28.1611 107.908 29.5375 107.385 30.7886C106.861 32.0396 105.973 33.1092 104.834 33.8617C103.694 34.6143 102.354 35.0161 100.984 35.0161C100.074 35.0256 99.1714 34.8562 98.3288 34.5177C97.4861 34.1794 96.72 33.6786 96.0754 33.0447C95.4306 32.4109 94.9202 31.6567 94.5738 30.8259C94.2272 29.9952 94.0518 29.1048 94.0574 28.2065V28.1976ZM103.995 28.1976C103.98 27.6133 103.791 27.0463 103.451 26.5676C103.111 26.0891 102.636 25.7201 102.085 25.5068C101.534 25.2935 100.931 25.2455 100.353 25.3687C99.7743 25.4919 99.2453 25.7809 98.8323 26.1994C98.4192 26.6181 98.1402 27.1476 98.0304 27.722C97.9205 28.2963 97.9846 28.8899 98.2146 29.4284C98.4447 29.967 98.8304 30.4265 99.3236 30.7498C99.8169 31.0729 100.396 31.2452 100.987 31.2452C101.391 31.2557 101.793 31.1839 102.167 31.034C102.542 30.8842 102.881 30.6595 103.163 30.3742C103.445 30.089 103.665 29.7491 103.808 29.3761C103.951 29.0031 104.015 28.6048 103.995 28.2065V28.1976Z" fill="#001A49"/>
</svg>
