<svg width="196" height="56" viewBox="0 0 196 56" fill="none" xmlns="http://www.w3.org/2000/svg">
<g clip-path="url(#clip0_1_399)">
<path d="M61.0364 36.9999H72.3891V33.7672H64.4982V18.6726H61.0364V36.9999Z" fill="#23216E"/>
<path d="M79.2113 37.3819C80.5859 37.3819 81.795 37.0764 82.8386 36.4655C83.8907 35.8461 84.7095 34.9934 85.295 33.9074C85.8889 32.8128 86.1859 31.5528 86.1859 30.1274C86.1859 28.7104 85.8931 27.4589 85.3077 26.3728C84.7222 25.2783 83.9034 24.4213 82.8513 23.8019C81.8077 23.1825 80.5944 22.8728 79.2113 22.8728C77.8537 22.8728 76.6531 23.1783 75.6095 23.7892C74.5659 24.4001 73.7471 25.2528 73.1531 26.3474C72.5592 27.4334 72.2622 28.6934 72.2622 30.1274C72.2622 31.5443 72.5507 32.8001 73.1277 33.8946C73.7131 34.9807 74.5277 35.8334 75.5713 36.4528C76.615 37.0722 77.8283 37.3819 79.2113 37.3819ZM79.2113 34.1492C78.1337 34.1492 77.315 33.7886 76.755 33.0674C76.2034 32.3377 75.9277 31.3577 75.9277 30.1274C75.9277 28.931 76.1907 27.9637 76.7168 27.2255C77.2513 26.4789 78.0828 26.1055 79.2113 26.1055C80.3059 26.1055 81.1289 26.4704 81.6804 27.2001C82.2404 27.9298 82.5204 28.9055 82.5204 30.1274C82.5204 31.3068 82.2447 32.274 81.6931 33.0292C81.1501 33.7758 80.3228 34.1492 79.2113 34.1492Z" fill="#23216E"/>
<path d="M93.0319 37.3819C93.6768 37.3819 94.2707 37.3055 94.8138 37.1528C95.3653 37.0001 95.8659 36.7837 96.3156 36.5037V37.891C96.3326 38.4001 96.201 38.8243 95.921 39.1637C95.6495 39.5116 95.2847 39.7704 94.8265 39.9401C94.3683 40.1183 93.8804 40.2074 93.3629 40.2074C92.8792 40.2074 92.4295 40.1013 92.0138 39.8892C91.6065 39.6771 91.2925 39.3674 91.0719 38.9601L87.8647 40.5128C88.3907 41.4037 89.1416 42.1207 90.1174 42.6637C91.0932 43.2152 92.1665 43.491 93.3374 43.491C94.3471 43.491 95.2847 43.3552 96.1501 43.0837C97.0156 42.8207 97.7453 42.4177 98.3392 41.8746C98.9416 41.3316 99.3532 40.6401 99.5738 39.8001C99.6501 39.5031 99.701 39.2019 99.7265 38.8964C99.7604 38.5995 99.7774 38.2813 99.7774 37.9419V23.2546H96.7483V24.0183C96.2816 23.6534 95.7513 23.3734 95.1574 23.1783C94.5719 22.9746 93.9229 22.8728 93.2101 22.8728C91.895 22.8728 90.7495 23.1868 89.7738 23.8146C88.798 24.4425 88.0386 25.3037 87.4956 26.3983C86.961 27.4843 86.6938 28.7274 86.6938 30.1274C86.6938 31.5019 86.9568 32.7364 87.4829 33.831C88.0174 34.9255 88.7598 35.791 89.7101 36.4274C90.6604 37.0637 91.7677 37.3819 93.0319 37.3819ZM93.5919 34.3019C92.8453 34.3019 92.2344 34.1152 91.7592 33.7419C91.2841 33.3686 90.9319 32.868 90.7029 32.2401C90.4738 31.6037 90.3592 30.8995 90.3592 30.1274C90.3592 29.3637 90.478 28.668 90.7156 28.0401C90.9532 27.4037 91.318 26.8989 91.8101 26.5255C92.3107 26.1437 92.9471 25.9528 93.7192 25.9528C94.8053 25.9528 95.5816 26.3389 96.0483 27.111C96.515 27.8746 96.7483 28.8801 96.7483 30.1274C96.7483 31.3746 96.5107 32.3843 96.0356 33.1564C95.5689 33.9201 94.7544 34.3019 93.5919 34.3019Z" fill="#23216E"/>
<path d="M108 37.3819C109.374 37.3819 110.583 37.0764 111.627 36.4655C112.679 35.8461 113.498 34.9934 114.083 33.9074C114.677 32.8128 114.974 31.5528 114.974 30.1274C114.974 28.7104 114.682 27.4589 114.096 26.3728C113.511 25.2783 112.692 24.4213 111.64 23.8019C110.596 23.1825 109.383 22.8728 108 22.8728C106.642 22.8728 105.442 23.1783 104.398 23.7892C103.354 24.4001 102.536 25.2528 101.942 26.3474C101.348 27.4334 101.051 28.6934 101.051 30.1274C101.051 31.5443 101.339 32.8001 101.916 33.8946C102.502 34.9807 103.316 35.8334 104.36 36.4528C105.403 37.0722 106.617 37.3819 108 37.3819ZM108 34.1492C106.922 34.1492 106.103 33.7886 105.543 33.0674C104.992 32.3377 104.716 31.3577 104.716 30.1274C104.716 28.931 104.979 27.9637 105.505 27.2255C106.04 26.4789 106.871 26.1055 108 26.1055C109.094 26.1055 109.917 26.4704 110.469 27.2001C111.029 27.9298 111.309 28.9055 111.309 30.1274C111.309 31.3068 111.033 32.274 110.482 33.0292C109.939 33.7758 109.111 34.1492 108 34.1492Z" fill="#23216E"/>
<path d="M116.5 21.3455H119.962V18.291H116.5V21.3455ZM116.5 37.0001H119.962V23.2546H116.5V37.0001Z" fill="#23216E"/>
<path d="M122.225 43.1092H125.712V36.5037C126.162 36.7837 126.658 37.0001 127.201 37.1528C127.753 37.3055 128.351 37.3819 128.996 37.3819C130.26 37.3819 131.368 37.0637 132.318 36.4274C133.268 35.791 134.006 34.9255 134.532 33.831C135.067 32.7364 135.334 31.5019 135.334 30.1274C135.334 28.7274 135.063 27.4843 134.52 26.3983C133.985 25.3037 133.23 24.4425 132.254 23.8146C131.278 23.1868 130.133 22.8728 128.818 22.8728C128.105 22.8728 127.452 22.9746 126.858 23.1783C126.272 23.3734 125.746 23.6534 125.28 24.0183V23.2546H122.225V43.1092ZM128.436 34.3019C127.282 34.3019 126.468 33.9201 125.992 33.1564C125.517 32.3843 125.28 31.3746 125.28 30.1274C125.28 28.8801 125.513 27.8746 125.98 27.111C126.455 26.3389 127.231 25.9528 128.309 25.9528C129.081 25.9528 129.713 26.1437 130.205 26.5255C130.706 26.8989 131.075 27.4037 131.312 28.0401C131.55 28.668 131.669 29.3637 131.669 30.1274C131.669 30.8995 131.554 31.6037 131.325 32.2401C131.096 32.868 130.744 33.3686 130.269 33.7419C129.794 34.1152 129.183 34.3019 128.436 34.3019Z" fill="#23216E"/>
<path d="M141.606 37.3819C143.404 37.3819 144.813 36.9789 145.831 36.1728C146.849 35.3667 147.358 34.2595 147.358 32.851C147.358 31.7819 147.027 30.9377 146.366 30.3183C145.712 29.6989 144.601 29.1855 143.031 28.7783C141.962 28.5067 141.164 28.2861 140.638 28.1164C140.121 27.9468 139.777 27.7813 139.607 27.6201C139.446 27.4589 139.366 27.2595 139.366 27.0219C139.366 26.6231 139.556 26.3177 139.938 26.1055C140.329 25.8934 140.842 25.8086 141.478 25.851C142.827 25.9528 143.566 26.5298 143.693 27.5819L147.231 26.9455C147.053 25.6983 146.442 24.7098 145.398 23.9801C144.355 23.2419 143.023 22.8728 141.402 22.8728C139.739 22.8728 138.411 23.2631 137.418 24.0437C136.426 24.8243 135.929 25.8764 135.929 27.2001C135.929 28.2522 136.273 29.0837 136.96 29.6946C137.647 30.2971 138.831 30.8146 140.511 31.2474C141.504 31.5104 142.233 31.7225 142.7 31.8837C143.175 32.0449 143.481 32.2104 143.616 32.3801C143.752 32.5413 143.82 32.7577 143.82 33.0292C143.82 33.4619 143.65 33.8013 143.311 34.0474C142.972 34.2849 142.488 34.4037 141.86 34.4037C141.096 34.4037 140.464 34.2213 139.964 33.8564C139.472 33.4916 139.153 32.9868 139.009 32.3419L135.471 32.8764C135.7 34.3104 136.345 35.4219 137.406 36.211C138.475 36.9916 139.875 37.3819 141.606 37.3819Z" fill="#23216E"/>
<path d="M153.744 37.4072C154.737 37.4072 155.602 37.2417 156.341 36.9108C157.079 36.5799 157.698 36.1387 158.199 35.5872V36.9999H161.253V23.2544H157.766V30.229C157.766 31.0775 157.668 31.7647 157.473 32.2908C157.287 32.8084 157.045 33.2029 156.748 33.4744C156.451 33.7375 156.133 33.9156 155.793 34.009C155.454 34.1023 155.136 34.149 154.839 34.149C154.101 34.149 153.528 33.9835 153.121 33.6526C152.722 33.3217 152.433 32.9102 152.255 32.4181C152.077 31.9259 151.971 31.4381 151.937 30.9544C151.903 30.4623 151.886 30.0593 151.886 29.7453V23.2544H148.373V30.9672C148.373 31.1962 148.39 31.5611 148.424 32.0617C148.458 32.5623 148.556 33.1181 148.717 33.729C148.878 34.3314 149.145 34.9126 149.519 35.4726C149.901 36.0326 150.431 36.495 151.11 36.8599C151.788 37.2247 152.667 37.4072 153.744 37.4072Z" fill="#23216E"/>
<path d="M163.258 37H166.745V28.6763C166.745 27.8873 166.961 27.2467 167.394 26.7545C167.835 26.2539 168.416 26.0036 169.138 26.0036C169.893 26.0036 170.483 26.2582 170.907 26.7673C171.339 27.2679 171.556 27.9721 171.556 28.88V37H175.018V28.6763C175.018 27.8873 175.234 27.2467 175.667 26.7545C176.108 26.2539 176.689 26.0036 177.41 26.0036C178.166 26.0036 178.755 26.2582 179.179 26.7673C179.612 27.2679 179.829 27.9721 179.829 28.88V37H183.29V27.9636C183.29 26.4618 182.887 25.2485 182.081 24.3236C181.284 23.3903 180.1 22.9236 178.53 22.9236C177.648 22.9236 176.838 23.1145 176.099 23.4963C175.361 23.8782 174.772 24.4 174.33 25.0618C173.974 24.417 173.465 23.8994 172.803 23.5091C172.141 23.1188 171.318 22.9236 170.334 22.9236C169.502 22.9236 168.739 23.0891 168.043 23.42C167.347 23.7424 166.77 24.1879 166.312 24.7563V23.2545H163.258V37Z" fill="#23216E"/>
<path d="M32 8C20.9543 8 12 16.9543 12 28C23.0457 28 32 19.0457 32 8Z" fill="#45D2B0"/>
<path d="M32 48C43.0457 48 52 39.0457 52 28C40.9543 28 32 36.9543 32 48Z" fill="#45D2B0"/>
<path d="M32 8C43.0457 8 52 16.9543 52 28C40.9543 28 32 19.0457 32 8Z" fill="#23216E"/>
<path d="M32 48C20.9543 48 12 39.0457 12 28C23.0457 28 32 36.9543 32 48Z" fill="#23216E"/>
</g>
<defs>
<clipPath id="clip0_1_399">
<rect width="172" height="40" fill="white" transform="translate(12 8)"/>
</clipPath>
</defs>
</svg>
