<svg width="195" height="56" viewBox="0 0 195 56" fill="none" xmlns="http://www.w3.org/2000/svg">
<g clip-path="url(#clip0_1_312)">
<path d="M79.5821 18.2839H76V34.4472H85.9164V31.2801H79.5821V18.2839Z" fill="#4845D2"/>
<path d="M86.2585 28.9649C86.2585 32.416 88.5738 34.7094 92.0685 34.7094C95.5414 34.7094 97.8567 32.416 97.8567 28.9649C97.8567 25.5138 95.5414 23.1985 92.0685 23.1985C88.5738 23.1985 86.2585 25.5138 86.2585 28.9649ZM89.644 28.943C89.644 27.3049 90.6051 26.2128 92.0685 26.2128C93.5101 26.2128 94.4712 27.3049 94.4712 28.943C94.4712 30.6031 93.5101 31.6952 92.0685 31.6952C90.6051 31.6952 89.644 30.6031 89.644 28.943Z" fill="#4845D2"/>
<path d="M98.3978 28.7901C98.3978 32.0882 100.538 34.3161 103.574 34.3161C105.038 34.3161 106.305 33.7919 106.938 32.9401V34.4472C106.938 35.9543 105.999 36.959 104.339 36.959C102.854 36.959 101.827 36.2601 101.761 35.0151H98.3541C98.6599 38.0075 100.975 40.0169 104.142 40.0169C107.877 40.0169 110.236 37.5925 110.236 33.7482V23.5261H107.2L107.025 24.64C106.414 23.7445 105.125 23.1548 103.64 23.1548C100.582 23.1548 98.3978 25.4482 98.3978 28.7901ZM101.805 28.7027C101.805 27.13 102.854 26.0816 104.186 26.0816C105.737 26.0816 106.873 27.1082 106.873 28.7027C106.873 30.2972 105.759 31.3893 104.208 31.3893C102.875 31.3893 101.805 30.2972 101.805 28.7027Z" fill="#4845D2"/>
<path d="M111.217 28.9649C111.217 32.416 113.532 34.7094 117.027 34.7094C120.5 34.7094 122.815 32.416 122.815 28.9649C122.815 25.5138 120.5 23.1985 117.027 23.1985C113.532 23.1985 111.217 25.5138 111.217 28.9649ZM114.602 28.943C114.602 27.3049 115.563 26.2128 117.027 26.2128C118.468 26.2128 119.429 27.3049 119.429 28.943C119.429 30.6031 118.468 31.6952 117.027 31.6952C115.563 31.6952 114.602 30.6031 114.602 28.943Z" fill="#4845D2"/>
<path d="M125.715 21.8224C126.763 21.8224 127.615 20.9705 127.615 19.9003C127.615 18.83 126.763 18 125.715 18C124.645 18 123.793 18.83 123.793 19.9003C123.793 20.9705 124.645 21.8224 125.715 21.8224ZM124.011 34.4472H127.397V23.5261H124.011V34.4472Z" fill="#4845D2"/>
<path d="M129.368 39.6892H132.688V33.355C133.321 34.185 134.763 34.7529 136.27 34.7529C139.524 34.7529 141.49 32.2629 141.403 28.8118C141.315 25.2952 139.284 23.1765 136.248 23.1765C134.697 23.1765 133.234 23.8536 132.622 24.8584L132.447 23.526H129.368V39.6892ZM132.753 28.9865C132.753 27.3484 133.845 26.2563 135.418 26.2563C137.012 26.2563 138.017 27.3702 138.017 28.9865C138.017 30.6029 137.012 31.7168 135.418 31.7168C133.845 31.7168 132.753 30.6247 132.753 28.9865Z" fill="#4845D2"/>
<path d="M141.761 30.996C141.848 33.2021 143.596 34.731 146.348 34.731C148.991 34.731 150.826 33.3331 150.826 31.0834C150.826 29.4671 149.865 28.3968 148.073 27.9599L146.13 27.4794C145.431 27.3047 144.994 27.1299 144.994 26.562C144.994 25.9941 145.452 25.6228 146.13 25.6228C146.894 25.6228 147.396 26.1252 147.375 26.8678H150.411C150.323 24.5962 148.598 23.1765 146.195 23.1765C143.771 23.1765 141.958 24.6181 141.958 26.8023C141.958 28.2657 142.766 29.4671 144.928 30.035L146.85 30.5373C147.418 30.6902 147.658 30.9523 147.658 31.3236C147.658 31.8697 147.156 32.2192 146.304 32.2192C145.321 32.2192 144.797 31.7605 144.797 30.996H141.761Z" fill="#4845D2"/>
<path d="M155.974 34.7311C157.307 34.7311 158.639 34.1195 159.316 33.224L159.535 34.4472H162.702V23.5261H159.338V29.2051C159.338 30.8432 158.858 31.7387 157.307 31.7387C156.105 31.7387 155.319 31.1927 155.319 29.1614V23.5261H151.955V30.3845C151.955 32.9838 153.397 34.7311 155.974 34.7311Z" fill="#4845D2"/>
<path d="M168.036 34.4472V28.4843C168.036 26.6495 169.019 26.1253 169.98 26.1253C171.05 26.1253 171.749 26.7806 171.749 28.1348V34.4472H175.069V28.4843C175.069 26.6277 176.03 26.1035 176.991 26.1035C178.061 26.1035 178.782 26.7587 178.782 28.1348V34.4472H182.059V27.3048C182.059 24.8148 180.748 23.1548 177.93 23.1548C176.358 23.1548 175.069 23.9192 174.501 25.0987C173.846 23.9192 172.71 23.1548 170.897 23.1548C169.696 23.1548 168.582 23.7008 167.927 24.5745L167.796 23.5261H164.65V34.4472H168.036Z" fill="#4845D2"/>
<path d="M12 28C12 19.1634 19.1634 12 28 12H49C57.8366 12 65 19.1634 65 28V44H28C19.1634 44 12 36.8366 12 28Z" fill="#4845D2"/>
<path d="M49 18H28C22.4772 18 18 22.4772 18 28C18 33.5228 22.4772 38 28 38H49C54.5228 38 59 33.5228 59 28C59 22.4772 54.5228 18 49 18Z" fill="#A5B4FC"/>
<path d="M28 33C30.7614 33 33 30.7614 33 28C33 25.2386 30.7614 23 28 23C25.2386 23 23 25.2386 23 28C23 30.7614 25.2386 33 28 33Z" fill="black"/>
<path d="M26 27C26.5523 27 27 26.5523 27 26C27 25.4477 26.5523 25 26 25C25.4477 25 25 25.4477 25 26C25 26.5523 25.4477 27 26 27Z" fill="white"/>
<path d="M50 33C52.7614 33 55 30.7614 55 28C55 25.2386 52.7614 23 50 23C47.2386 23 45 25.2386 45 28C45 30.7614 47.2386 33 50 33Z" fill="black"/>
<path d="M48 27C48.5523 27 49 26.5523 49 26C49 25.4477 48.5523 25 48 25C47.4477 25 47 25.4477 47 26C47 26.5523 47.4477 27 48 27Z" fill="white"/>
</g>
<defs>
<clipPath id="clip0_1_312">
<rect width="171" height="32" fill="white" transform="translate(12 12)"/>
</clipPath>
</defs>
</svg>
