<svg width="194" height="56" viewBox="0 0 194 56" fill="none" xmlns="http://www.w3.org/2000/svg">
<g clip-path="url(#clip0_1_341)">
<path d="M63.2775 36.8231H75.2295V33.2231H67.5255V19.6631H63.2775V36.8231Z" fill="#2F234F"/>
<path d="M82.3106 34.4232C80.6066 34.4232 79.7186 32.9352 79.7186 30.7032C79.7186 28.4712 80.6066 26.9592 82.3106 26.9592C84.0146 26.9592 84.9266 28.4712 84.9266 30.7032C84.9266 32.9352 84.0146 34.4232 82.3106 34.4232ZM82.3346 37.2072C86.2946 37.2072 88.8866 34.3992 88.8866 30.7032C88.8866 27.0072 86.2946 24.1992 82.3346 24.1992C78.3986 24.1992 75.7586 27.0072 75.7586 30.7032C75.7586 34.3992 78.3986 37.2072 82.3346 37.2072Z" fill="#2F234F"/>
<path d="M95.741 41.0713C97.565 41.0713 99.173 40.6633 100.253 39.7033C101.237 38.8153 101.885 37.4713 101.885 35.6233V24.5353H98.141V25.8553H98.093C97.373 24.8233 96.269 24.1753 94.637 24.1753C91.589 24.1753 89.477 26.7193 89.477 30.3193C89.477 34.0873 92.045 36.1513 94.805 36.1513C96.293 36.1513 97.229 35.5513 97.949 34.7353H98.045V35.9593C98.045 37.4473 97.349 38.3113 95.693 38.3113C94.397 38.3113 93.749 37.7593 93.533 37.1113H89.741C90.125 39.6793 92.357 41.0713 95.741 41.0713ZM95.717 33.2473C94.253 33.2473 93.293 32.0473 93.293 30.1993C93.293 28.3273 94.253 27.1273 95.717 27.1273C97.349 27.1273 98.213 28.5193 98.213 30.1753C98.213 31.9033 97.421 33.2473 95.717 33.2473Z" fill="#2F234F"/>
<path d="M109.583 34.4232C107.879 34.4232 106.991 32.9352 106.991 30.7032C106.991 28.4712 107.879 26.9592 109.583 26.9592C111.287 26.9592 112.199 28.4712 112.199 30.7032C112.199 32.9352 111.287 34.4232 109.583 34.4232ZM109.607 37.2072C113.567 37.2072 116.159 34.3992 116.159 30.7032C116.159 27.0072 113.567 24.1992 109.607 24.1992C105.671 24.1992 103.031 27.0072 103.031 30.7032C103.031 34.3992 105.671 37.2072 109.607 37.2072Z" fill="#2F234F"/>
<path d="M117.302 36.8231H121.214V24.5351H117.302V36.8231ZM117.302 22.8311H121.214V19.6631H117.302V22.8311Z" fill="#2F234F"/>
<path d="M122.911 40.8793H126.823V35.5513H126.871C127.639 36.5833 128.767 37.2073 130.351 37.2073C133.567 37.2073 135.703 34.6633 135.703 30.6793C135.703 26.9833 133.711 24.1753 130.447 24.1753C128.767 24.1753 127.567 24.9193 126.727 26.0233H126.655V24.5353H122.911V40.8793ZM129.343 34.1833C127.663 34.1833 126.703 32.8153 126.703 30.8233C126.703 28.8313 127.567 27.3193 129.271 27.3193C130.951 27.3193 131.743 28.7113 131.743 30.8233C131.743 32.9113 130.831 34.1833 129.343 34.1833Z" fill="#2F234F"/>
<path d="M142.072 37.2073C145.288 37.2073 147.664 35.8153 147.664 33.1273C147.664 29.9833 145.12 29.4313 142.96 29.0713C141.4 28.7833 140.008 28.6633 140.008 27.7993C140.008 27.0313 140.752 26.6713 141.712 26.6713C142.792 26.6713 143.536 27.0073 143.68 28.1113H147.28C147.088 25.6873 145.216 24.1753 141.736 24.1753C138.832 24.1753 136.432 25.5193 136.432 28.1113C136.432 30.9913 138.712 31.5673 140.848 31.9273C142.48 32.2153 143.968 32.3353 143.968 33.4393C143.968 34.2313 143.224 34.6633 142.048 34.6633C140.752 34.6633 139.936 34.0633 139.792 32.8393H136.096C136.216 35.5513 138.472 37.2073 142.072 37.2073Z" fill="#2F234F"/>
<path d="M152.978 37.1832C154.682 37.1832 155.762 36.5112 156.65 35.3112H156.722V36.8232H160.466V24.5352H156.554V31.3992C156.554 32.8632 155.738 33.8712 154.394 33.8712C153.146 33.8712 152.546 33.1272 152.546 31.7832V24.5352H148.658V32.5992C148.658 35.3352 150.146 37.1832 152.978 37.1832Z" fill="#2F234F"/>
<path d="M162.168 36.8233H166.08V29.9353C166.08 28.4713 166.8 27.4393 168.024 27.4393C169.2 27.4393 169.752 28.2073 169.752 29.5273V36.8233H173.664V29.9353C173.664 28.4713 174.36 27.4393 175.608 27.4393C176.784 27.4393 177.336 28.2073 177.336 29.5273V36.8233H181.248V28.8313C181.248 26.0713 179.856 24.1753 177.072 24.1753C175.488 24.1753 174.168 24.8473 173.208 26.3353H173.16C172.536 25.0153 171.312 24.1753 169.704 24.1753C167.928 24.1753 166.752 25.0153 165.984 26.2873H165.912V24.5353H162.168V36.8233Z" fill="#2F234F"/>
<path fill-rule="evenodd" clip-rule="evenodd" d="M32.1014 47.8232C43.1472 47.8232 52.1014 38.8689 52.1014 27.8232C52.1014 16.7775 43.1472 7.82324 32.1014 7.82324C21.0557 7.82324 12.1014 16.7775 12.1014 27.8232C12.1014 38.8689 21.0557 47.8232 32.1014 47.8232ZM35.1884 23.2758C36.8932 21.5709 36.8932 18.8068 35.1884 17.1019C33.4835 15.397 30.7194 15.397 29.0145 17.1019C27.3097 18.8068 27.3097 21.5709 29.0145 23.2758L32.1014 26.3627L35.1884 23.2758ZM36.6489 30.9102C38.3538 32.6151 41.1179 32.6151 42.8228 30.9102C44.5276 29.2053 44.5276 26.4412 42.8228 24.7363C41.1179 23.0315 38.3538 23.0315 36.6489 24.7363L33.562 27.8233L36.6489 30.9102ZM35.1884 38.5446C36.8932 36.8397 36.8932 34.0756 35.1884 32.3707L32.1014 29.2838L29.0145 32.3707C27.3097 34.0756 27.3097 36.8397 29.0145 38.5446C30.7194 40.2495 33.4835 40.2495 35.1884 38.5446ZM21.3801 30.9102C19.6752 29.2053 19.6752 26.4412 21.3801 24.7363C23.085 23.0315 25.8491 23.0315 27.554 24.7363L30.6409 27.8233L27.554 30.9102C25.8491 32.6151 23.085 32.6151 21.3801 30.9102Z" fill="#7F57F1"/>
</g>
<defs>
<clipPath id="clip0_1_341">
<rect width="170" height="41" fill="white" transform="translate(12 7.5)"/>
</clipPath>
</defs>
</svg>
