<svg width="179" height="56" viewBox="0 0 179 56" fill="none" xmlns="http://www.w3.org/2000/svg">
<g clip-path="url(#clip0_1_370)">
<path d="M63.5821 18.2839H60V34.4472H69.9164V31.2801H63.5821V18.2839Z" fill="#243A5A"/>
<path d="M70.2585 28.9649C70.2585 32.416 72.5738 34.7094 76.0685 34.7094C79.5414 34.7094 81.8567 32.416 81.8567 28.9649C81.8567 25.5138 79.5414 23.1985 76.0685 23.1985C72.5738 23.1985 70.2585 25.5138 70.2585 28.9649ZM73.644 28.943C73.644 27.3049 74.6051 26.2128 76.0685 26.2128C77.5101 26.2128 78.4712 27.3049 78.4712 28.943C78.4712 30.6031 77.5101 31.6952 76.0685 31.6952C74.6051 31.6952 73.644 30.6031 73.644 28.943Z" fill="#243A5A"/>
<path d="M82.3978 28.7901C82.3978 32.0882 84.5384 34.3161 87.5744 34.3161C89.0379 34.3161 90.3047 33.7919 90.9381 32.9401V34.4472C90.9381 35.9543 89.9989 36.959 88.3389 36.959C86.8536 36.959 85.827 36.2601 85.7615 35.0151H82.3541C82.6599 38.0075 84.9752 40.0169 88.1423 40.0169C91.8773 40.0169 94.2363 37.5925 94.2363 33.7482V23.5261H91.2002L91.0255 24.64C90.4139 23.7445 89.1252 23.1548 87.64 23.1548C84.582 23.1548 82.3978 25.4482 82.3978 28.7901ZM85.8052 28.7027C85.8052 27.13 86.8536 26.0816 88.186 26.0816C89.7368 26.0816 90.8726 27.1082 90.8726 28.7027C90.8726 30.2972 89.7586 31.3893 88.2078 31.3893C86.8755 31.3893 85.8052 30.2972 85.8052 28.7027Z" fill="#243A5A"/>
<path d="M95.2166 28.9649C95.2166 32.416 97.5319 34.7094 101.027 34.7094C104.5 34.7094 106.815 32.416 106.815 28.9649C106.815 25.5138 104.5 23.1985 101.027 23.1985C97.5319 23.1985 95.2166 25.5138 95.2166 28.9649ZM98.6022 28.943C98.6022 27.3049 99.5632 26.2128 101.027 26.2128C102.468 26.2128 103.429 27.3049 103.429 28.943C103.429 30.6031 102.468 31.6952 101.027 31.6952C99.5632 31.6952 98.6022 30.6031 98.6022 28.943Z" fill="#243A5A"/>
<path d="M109.715 21.8224C110.763 21.8224 111.615 20.9705 111.615 19.9003C111.615 18.83 110.763 18 109.715 18C108.645 18 107.793 18.83 107.793 19.9003C107.793 20.9705 108.645 21.8224 109.715 21.8224ZM108.011 34.4472H111.397V23.5261H108.011V34.4472Z" fill="#243A5A"/>
<path d="M113.368 39.6892H116.688V33.355C117.321 34.185 118.763 34.7529 120.27 34.7529C123.524 34.7529 125.49 32.2629 125.403 28.8118C125.315 25.2952 123.284 23.1765 120.248 23.1765C118.697 23.1765 117.234 23.8536 116.622 24.8584L116.447 23.526H113.368V39.6892ZM116.753 28.9865C116.753 27.3484 117.845 26.2563 119.418 26.2563C121.012 26.2563 122.017 27.3702 122.017 28.9865C122.017 30.6029 121.012 31.7168 119.418 31.7168C117.845 31.7168 116.753 30.6247 116.753 28.9865Z" fill="#243A5A"/>
<path d="M125.761 30.996C125.848 33.2021 127.596 34.731 130.348 34.731C132.991 34.731 134.826 33.3331 134.826 31.0834C134.826 29.4671 133.865 28.3968 132.073 27.9599L130.13 27.4794C129.431 27.3047 128.994 27.1299 128.994 26.562C128.994 25.9941 129.452 25.6228 130.13 25.6228C130.894 25.6228 131.396 26.1252 131.375 26.8678H134.411C134.323 24.5962 132.598 23.1765 130.195 23.1765C127.771 23.1765 125.958 24.6181 125.958 26.8023C125.958 28.2657 126.766 29.4671 128.928 30.035L130.85 30.5373C131.418 30.6902 131.658 30.9523 131.658 31.3236C131.658 31.8697 131.156 32.2192 130.304 32.2192C129.321 32.2192 128.797 31.7605 128.797 30.996H125.761Z" fill="#243A5A"/>
<path d="M139.974 34.7311C141.307 34.7311 142.639 34.1195 143.316 33.224L143.535 34.4472H146.702V23.5261H143.338V29.2051C143.338 30.8432 142.858 31.7387 141.307 31.7387C140.105 31.7387 139.319 31.1927 139.319 29.1614V23.5261H135.955V30.3845C135.955 32.9838 137.397 34.7311 139.974 34.7311Z" fill="#243A5A"/>
<path d="M152.036 34.4472V28.4843C152.036 26.6495 153.019 26.1253 153.98 26.1253C155.05 26.1253 155.749 26.7806 155.749 28.1348V34.4472H159.069V28.4843C159.069 26.6277 160.03 26.1035 160.991 26.1035C162.061 26.1035 162.782 26.7587 162.782 28.1348V34.4472H166.059V27.3048C166.059 24.8148 164.748 23.1548 161.93 23.1548C160.358 23.1548 159.069 23.9192 158.501 25.0987C157.846 23.9192 156.71 23.1548 154.897 23.1548C153.696 23.1548 152.582 23.7008 151.927 24.5745L151.796 23.5261H148.65V34.4472H152.036Z" fill="#243A5A"/>
<path d="M12 28C12 18.5719 12 13.8579 14.9289 10.9289C17.8579 8 22.5719 8 32 8C41.4281 8 46.1421 8 49.0711 10.9289C52 13.8579 52 18.5719 52 28C52 37.4281 52 42.1421 49.0711 45.0711C46.1421 48 41.4281 48 32 48C22.5719 48 17.8579 48 14.9289 45.0711C12 42.1421 12 37.4281 12 28Z" fill="#243A5A"/>
<path d="M36 34C36.5523 34 37.0101 34.4521 36.9004 34.9934C36.7065 35.9494 36.2355 36.8355 35.5355 37.5355C34.5979 38.4732 33.3261 39 32 39C30.6739 39 29.4022 38.4732 28.4645 37.5355C27.7645 36.8355 27.2935 35.9494 27.0997 34.9934C26.9899 34.4521 27.4477 34 28 34H36Z" fill="#2DF8BB"/>
<path d="M38.1023 25.7765C37.5688 25.9194 37.2421 26.4775 37.5126 26.959C37.7973 27.4658 38.1911 27.9081 38.6702 28.2514C39.4224 28.7904 40.3382 29.052 41.2617 28.9914C42.1851 28.9309 43.059 28.5521 43.7344 27.9195C44.4099 27.2869 44.845 26.4396 44.9658 25.5221C45.0866 24.6046 44.8856 23.6736 44.3969 22.8877C43.9082 22.1019 43.1621 21.5098 42.2858 21.2123C41.4095 20.9148 40.4572 20.9304 39.5911 21.2564C39.0395 21.464 38.5447 21.7893 38.1385 22.2051C37.7526 22.6002 37.9237 23.2239 38.402 23.5L38.9093 23.7929C39.6808 24.2384 39.5287 25.3943 38.6681 25.6249L38.1023 25.7765Z" fill="#2DF8BB"/>
<path d="M25.8978 25.7765C26.4313 25.9194 26.758 26.4775 26.4875 26.959C26.2028 27.4658 25.809 27.9081 25.33 28.2514C24.5778 28.7904 23.6619 29.052 22.7385 28.9914C21.815 28.9309 20.9411 28.5521 20.2657 27.9195C19.5903 27.2869 19.1551 26.4396 19.0343 25.5221C18.9135 24.6046 19.1146 23.6736 19.6033 22.8877C20.0919 22.1019 20.838 21.5098 21.7143 21.2123C22.5906 20.9148 23.543 20.9304 24.4091 21.2564C24.9606 21.464 25.4555 21.7893 25.8617 22.2051C26.2476 22.6002 26.0764 23.2239 25.5981 23.5L25.0908 23.7929C24.3193 24.2384 24.4715 25.3943 25.332 25.6249L25.8978 25.7765Z" fill="#2DF8BB"/>
</g>
<defs>
<clipPath id="clip0_1_370">
<rect width="155" height="40" fill="white" transform="translate(12 8)"/>
</clipPath>
</defs>
</svg>
