<svg width="194" height="56" viewBox="0 0 194 56" fill="none" xmlns="http://www.w3.org/2000/svg">
<g clip-path="url(#clip0_1_329)">
<path d="M63.8601 35.638H75.8121V32.038H68.1081V18.478H63.8601V35.638Z" fill="#340E0E"/>
<path d="M82.8932 33.2379C81.1892 33.2379 80.3012 31.7499 80.3012 29.5179C80.3012 27.2859 81.1892 25.7739 82.8932 25.7739C84.5972 25.7739 85.5092 27.2859 85.5092 29.5179C85.5092 31.7499 84.5972 33.2379 82.8932 33.2379ZM82.9172 36.0219C86.8772 36.0219 89.4692 33.2139 89.4692 29.5179C89.4692 25.8219 86.8772 23.0139 82.9172 23.0139C78.9812 23.0139 76.3412 25.8219 76.3412 29.5179C76.3412 33.2139 78.9812 36.0219 82.9172 36.0219Z" fill="#340E0E"/>
<path d="M96.3237 39.886C98.1477 39.886 99.7557 39.478 100.836 38.518C101.82 37.63 102.468 36.286 102.468 34.438V23.35H98.7237V24.67H98.6757C97.9557 23.638 96.8517 22.99 95.2197 22.99C92.1717 22.99 90.0597 25.534 90.0597 29.134C90.0597 32.902 92.6277 34.966 95.3877 34.966C96.8757 34.966 97.8117 34.366 98.5317 33.55H98.6277V34.774C98.6277 36.262 97.9317 37.126 96.2757 37.126C94.9797 37.126 94.3317 36.574 94.1157 35.926H90.3237C90.7077 38.494 92.9397 39.886 96.3237 39.886ZM96.2997 32.062C94.8357 32.062 93.8757 30.862 93.8757 29.014C93.8757 27.142 94.8357 25.942 96.2997 25.942C97.9317 25.942 98.7957 27.334 98.7957 28.99C98.7957 30.718 98.0037 32.062 96.2997 32.062Z" fill="#340E0E"/>
<path d="M110.166 33.2379C108.462 33.2379 107.574 31.7499 107.574 29.5179C107.574 27.2859 108.462 25.7739 110.166 25.7739C111.87 25.7739 112.782 27.2859 112.782 29.5179C112.782 31.7499 111.87 33.2379 110.166 33.2379ZM110.19 36.0219C114.15 36.0219 116.742 33.2139 116.742 29.5179C116.742 25.8219 114.15 23.0139 110.19 23.0139C106.254 23.0139 103.614 25.8219 103.614 29.5179C103.614 33.2139 106.254 36.0219 110.19 36.0219Z" fill="#340E0E"/>
<path d="M117.884 35.638H121.796V23.35H117.884V35.638ZM117.884 21.646H121.796V18.478H117.884V21.646Z" fill="#340E0E"/>
<path d="M123.494 39.694H127.406V34.366H127.454C128.222 35.398 129.35 36.022 130.934 36.022C134.15 36.022 136.286 33.478 136.286 29.494C136.286 25.798 134.294 22.99 131.03 22.99C129.35 22.99 128.15 23.734 127.31 24.838H127.238V23.35H123.494V39.694ZM129.926 32.998C128.246 32.998 127.286 31.63 127.286 29.638C127.286 27.646 128.15 26.134 129.854 26.134C131.534 26.134 132.326 27.526 132.326 29.638C132.326 31.726 131.414 32.998 129.926 32.998Z" fill="#340E0E"/>
<path d="M142.655 36.022C145.871 36.022 148.247 34.63 148.247 31.942C148.247 28.798 145.703 28.246 143.543 27.886C141.983 27.598 140.591 27.478 140.591 26.614C140.591 25.846 141.335 25.486 142.295 25.486C143.375 25.486 144.119 25.822 144.263 26.926H147.863C147.671 24.502 145.799 22.99 142.319 22.99C139.415 22.99 137.015 24.334 137.015 26.926C137.015 29.806 139.295 30.382 141.431 30.742C143.063 31.03 144.551 31.15 144.551 32.254C144.551 33.046 143.807 33.478 142.631 33.478C141.335 33.478 140.519 32.878 140.375 31.654H136.679C136.799 34.366 139.055 36.022 142.655 36.022Z" fill="#340E0E"/>
<path d="M153.561 35.9981C155.265 35.9981 156.345 35.3261 157.233 34.1261H157.305V35.6381H161.049V23.3501H157.137V30.2141C157.137 31.6781 156.321 32.6861 154.977 32.6861C153.729 32.6861 153.129 31.9421 153.129 30.5981V23.3501H149.241V31.4141C149.241 34.1501 150.729 35.9981 153.561 35.9981Z" fill="#340E0E"/>
<path d="M162.75 35.638H166.662V28.75C166.662 27.286 167.382 26.254 168.606 26.254C169.782 26.254 170.334 27.022 170.334 28.342V35.638H174.246V28.75C174.246 27.286 174.942 26.254 176.19 26.254C177.366 26.254 177.918 27.022 177.918 28.342V35.638H181.83V27.646C181.83 24.886 180.438 22.99 177.654 22.99C176.07 22.99 174.75 23.662 173.79 25.15H173.742C173.118 23.83 171.894 22.99 170.286 22.99C168.51 22.99 167.334 23.83 166.566 25.102H166.494V23.35H162.75V35.638Z" fill="#340E0E"/>
<path fill-rule="evenodd" clip-rule="evenodd" d="M32.6841 47.6379C43.7298 47.6379 52.6841 38.6836 52.6841 27.6379C52.6841 16.5922 43.7298 7.63794 32.6841 7.63794C21.6384 7.63794 12.6841 16.5922 12.6841 27.6379C12.6841 38.6836 21.6384 47.6379 32.6841 47.6379ZM38.9234 16.9548C39.2271 15.876 38.1802 15.2381 37.2241 15.9192L23.8772 25.4275C22.8403 26.1662 23.0034 27.6379 24.1222 27.6379H27.6368V27.6107H34.4866L28.9053 29.58L26.4448 38.3211C26.1411 39.3999 27.1879 40.0378 28.1441 39.3566L41.491 29.8484C42.5279 29.1097 42.3647 27.6379 41.246 27.6379H35.9162L38.9234 16.9548Z" fill="#F15757"/>
</g>
<defs>
<clipPath id="clip0_1_329">
<rect width="170" height="41" fill="white" transform="translate(12 7.5)"/>
</clipPath>
</defs>
</svg>
