<svg width="178" height="56" viewBox="0 0 178 56" fill="none" xmlns="http://www.w3.org/2000/svg">
<path d="M35.1525 35.1945H43.1476L23.3421 15.3889H15.3469L35.1525 35.1945Z" fill="#7476ED"/>
<path d="M27.4497 15.3889L46.5419 34.4811V15.3889H41.3752V21.4167L35.3474 15.3889L27.4497 15.3889Z" fill="#E56F8C"/>
<path d="M12 16.052V35.1945H17.1667V29.1667L23.1944 35.1945H31.1425L12 16.052Z" fill="#64C2DB"/>
<path d="M59.0098 32.2165H63.6391V34.9445H55.4758V20.4365H59.0098V32.2165Z" fill="#3A3B7B"/>
<path d="M69.9542 35.1098C68.8244 35.1098 67.8048 34.8687 66.8955 34.3864C65.9999 33.9042 65.2904 33.2153 64.7668 32.3198C64.2571 31.4242 64.0022 30.3771 64.0022 29.1784C64.0022 27.9936 64.2639 26.9533 64.7875 26.0578C65.3111 25.1484 66.0275 24.4526 66.9368 23.9704C67.8462 23.4882 68.8657 23.2471 69.9955 23.2471C71.1253 23.2471 72.1448 23.4882 73.0542 23.9704C73.9635 24.4526 74.6799 25.1484 75.2035 26.0578C75.7271 26.9533 75.9888 27.9936 75.9888 29.1784C75.9888 30.3633 75.7202 31.4104 75.1828 32.3198C74.6593 33.2153 73.9359 33.9042 73.0128 34.3864C72.1035 34.8687 71.0839 35.1098 69.9542 35.1098ZM69.9542 32.0511C70.6293 32.0511 71.2011 31.8031 71.6695 31.3071C72.1517 30.8111 72.3928 30.1016 72.3928 29.1784C72.3928 28.2553 72.1586 27.5458 71.6902 27.0498C71.2355 26.5538 70.6706 26.3058 69.9955 26.3058C69.3066 26.3058 68.7348 26.5538 68.2802 27.0498C67.8255 27.532 67.5982 28.2416 67.5982 29.1784C67.5982 30.1016 67.8186 30.8111 68.2595 31.3071C68.7142 31.8031 69.2791 32.0511 69.9542 32.0511Z" fill="#3A3B7B"/>
<path d="M81.625 23.2471C82.4379 23.2471 83.1475 23.4124 83.7537 23.7431C84.3737 24.0737 84.849 24.5078 85.1797 25.0451V23.4124H88.7137V34.9238C88.7137 35.9847 88.5001 36.9422 88.073 37.7964C87.6597 38.6644 87.019 39.3533 86.151 39.8631C85.2968 40.3729 84.229 40.6278 82.9477 40.6278C81.2392 40.6278 79.8546 40.2213 78.7937 39.4084C77.7328 38.6093 77.1266 37.5209 76.975 36.1431H80.4677C80.5779 36.584 80.8397 36.9284 81.253 37.1764C81.6664 37.4382 82.1761 37.5691 82.7824 37.5691C83.5126 37.5691 84.0912 37.3556 84.5184 36.9284C84.9592 36.5151 85.1797 35.8469 85.1797 34.9238V33.2911C84.8352 33.8284 84.3599 34.2693 83.7537 34.6138C83.1475 34.9444 82.4379 35.1098 81.625 35.1098C80.6744 35.1098 79.8132 34.8687 79.0417 34.3864C78.2701 33.8904 77.657 33.1947 77.2024 32.2991C76.7615 31.3898 76.541 30.3427 76.541 29.1578C76.541 27.9729 76.7615 26.9327 77.2024 26.0371C77.657 25.1416 78.2701 24.4526 79.0417 23.9704C79.8132 23.4882 80.6744 23.2471 81.625 23.2471ZM85.1797 29.1784C85.1797 28.2967 84.9317 27.6009 84.4357 27.0911C83.9535 26.5813 83.361 26.3264 82.6584 26.3264C81.9557 26.3264 81.3564 26.5813 80.8604 27.0911C80.3781 27.5871 80.137 28.276 80.137 29.1578C80.137 30.0396 80.3781 30.7422 80.8604 31.2658C81.3564 31.7756 81.9557 32.0304 82.6584 32.0304C83.361 32.0304 83.9535 31.7756 84.4357 31.2658C84.9317 30.756 85.1797 30.0602 85.1797 29.1784Z" fill="#3A3B7B"/>
<path d="M95.8995 35.1098C94.7697 35.1098 93.7502 34.8687 92.8408 34.3864C91.9453 33.9042 91.2357 33.2153 90.7122 32.3198C90.2024 31.4242 89.9475 30.3771 89.9475 29.1784C89.9475 27.9936 90.2093 26.9533 90.7328 26.0578C91.2564 25.1484 91.9728 24.4526 92.8822 23.9704C93.7915 23.4882 94.8111 23.2471 95.9408 23.2471C97.0706 23.2471 98.0902 23.4882 98.9995 23.9704C99.9088 24.4526 100.625 25.1484 101.149 26.0578C101.672 26.9533 101.934 27.9936 101.934 29.1784C101.934 30.3633 101.666 31.4104 101.128 32.3198C100.605 33.2153 99.8813 33.9042 98.9582 34.3864C98.0488 34.8687 97.0293 35.1098 95.8995 35.1098ZM95.8995 32.0511C96.5746 32.0511 97.1464 31.8031 97.6148 31.3071C98.0971 30.8111 98.3382 30.1016 98.3382 29.1784C98.3382 28.2553 98.104 27.5458 97.6355 27.0498C97.1808 26.5538 96.616 26.3058 95.9408 26.3058C95.252 26.3058 94.6802 26.5538 94.2255 27.0498C93.7708 27.532 93.5435 28.2416 93.5435 29.1784C93.5435 30.1016 93.764 30.8111 94.2048 31.3071C94.6595 31.8031 95.2244 32.0511 95.8995 32.0511Z" fill="#3A3B7B"/>
<path d="M104.966 22.2137C104.346 22.2137 103.837 22.0346 103.437 21.6764C103.051 21.3044 102.858 20.8497 102.858 20.3124C102.858 19.7613 103.051 19.3066 103.437 18.9484C103.837 18.5764 104.346 18.3904 104.966 18.3904C105.573 18.3904 106.069 18.5764 106.454 18.9484C106.854 19.3066 107.054 19.7613 107.054 20.3124C107.054 20.8497 106.854 21.3044 106.454 21.6764C106.069 22.0346 105.573 22.2137 104.966 22.2137ZM106.723 23.4124V34.9443H103.189V23.4124H106.723Z" fill="#3A3B7B"/>
<path d="M112.198 25.0451C112.543 24.5078 113.018 24.0737 113.624 23.7431C114.23 23.4124 114.94 23.2471 115.753 23.2471C116.704 23.2471 117.565 23.4882 118.336 23.9704C119.108 24.4526 119.714 25.1416 120.155 26.0371C120.61 26.9327 120.837 27.9729 120.837 29.1578C120.837 30.3427 120.61 31.3898 120.155 32.2991C119.714 33.1947 119.108 33.8904 118.336 34.3864C117.565 34.8687 116.704 35.1098 115.753 35.1098C114.954 35.1098 114.244 34.9444 113.624 34.6138C113.018 34.2831 112.543 33.856 112.198 33.3324V40.4418H108.664V23.4124H112.198V25.0451ZM117.241 29.1578C117.241 28.276 116.993 27.5871 116.497 27.0911C116.015 26.5813 115.415 26.3264 114.699 26.3264C113.996 26.3264 113.397 26.5813 112.901 27.0911C112.419 27.6009 112.178 28.2967 112.178 29.1784C112.178 30.0602 112.419 30.756 112.901 31.2658C113.397 31.7756 113.996 32.0304 114.699 32.0304C115.402 32.0304 116.001 31.7756 116.497 31.2658C116.993 30.7422 117.241 30.0396 117.241 29.1578Z" fill="#3A3B7B"/>
<path d="M126.762 35.1098C125.756 35.1098 124.861 34.9376 124.076 34.5931C123.29 34.2487 122.67 33.7802 122.216 33.1878C121.761 32.5816 121.506 31.9064 121.451 31.1624H124.944C124.985 31.562 125.171 31.8858 125.502 32.1338C125.832 32.3818 126.239 32.5058 126.721 32.5058C127.162 32.5058 127.499 32.4231 127.734 32.2578C127.982 32.0787 128.106 31.8513 128.106 31.5758C128.106 31.2451 127.933 31.004 127.589 30.8524C127.244 30.6871 126.686 30.508 125.915 30.3151C125.088 30.1222 124.399 29.9224 123.848 29.7158C123.297 29.4953 122.822 29.1578 122.422 28.7031C122.023 28.2347 121.823 27.6078 121.823 26.8224C121.823 26.1611 122.002 25.5618 122.36 25.0244C122.732 24.4733 123.27 24.0393 123.972 23.7224C124.689 23.4055 125.536 23.2471 126.514 23.2471C127.961 23.2471 129.098 23.6053 129.924 24.3217C130.765 25.0382 131.247 25.9889 131.371 27.1738H128.106C128.05 26.7742 127.871 26.4573 127.568 26.2231C127.279 25.9889 126.893 25.8718 126.411 25.8718C125.998 25.8718 125.681 25.9544 125.46 26.1198C125.24 26.2713 125.13 26.4849 125.13 26.7604C125.13 27.0911 125.302 27.3391 125.646 27.5044C126.004 27.6698 126.556 27.8351 127.3 28.0004C128.154 28.2209 128.85 28.4413 129.387 28.6618C129.924 28.8684 130.393 29.2129 130.792 29.6951C131.206 30.1636 131.419 30.7973 131.433 31.5964C131.433 32.2716 131.24 32.8778 130.854 33.4151C130.482 33.9387 129.938 34.352 129.222 34.6551C128.519 34.9582 127.699 35.1098 126.762 35.1098Z" fill="#3A3B7B"/>
<path d="M144.362 23.4124V34.9443H140.828V33.3737C140.47 33.8835 139.981 34.2968 139.361 34.6137C138.755 34.9168 138.08 35.0683 137.336 35.0683C136.454 35.0683 135.675 34.8755 135 34.4897C134.325 34.0901 133.802 33.5183 133.43 32.7743C133.058 32.0303 132.872 31.1555 132.872 30.1497V23.4124H136.385V29.6743C136.385 30.4459 136.585 31.0452 136.984 31.4723C137.384 31.8995 137.921 32.113 138.596 32.113C139.285 32.113 139.829 31.8995 140.229 31.4723C140.629 31.0452 140.828 30.4459 140.828 29.6743V23.4124H144.362Z" fill="#3A3B7B"/>
<path d="M160.995 23.2883C162.428 23.2883 163.565 23.7223 164.405 24.5903C165.26 25.4583 165.687 26.6639 165.687 28.207V34.9443H162.173V28.6823C162.173 27.9383 161.974 27.3666 161.574 26.967C161.188 26.5537 160.651 26.347 159.962 26.347C159.273 26.347 158.729 26.5537 158.329 26.967C157.944 27.3666 157.751 27.9383 157.751 28.6823V34.9443H154.237V28.6823C154.237 27.9383 154.038 27.3666 153.638 26.967C153.252 26.5537 152.715 26.347 152.026 26.347C151.337 26.347 150.793 26.5537 150.393 26.967C150.008 27.3666 149.815 27.9383 149.815 28.6823V34.9443H146.281V23.4123H149.815V24.859C150.173 24.3768 150.641 23.9979 151.22 23.7223C151.799 23.433 152.453 23.2883 153.183 23.2883C154.051 23.2883 154.823 23.4743 155.498 23.8463C156.187 24.2183 156.724 24.7488 157.11 25.4377C157.51 24.8039 158.054 24.2872 158.743 23.8877C159.432 23.4881 160.183 23.2883 160.995 23.2883Z" fill="#3A3B7B"/>
</svg>
