<svg width="185" height="56" viewBox="0 0 185 56" fill="none" xmlns="http://www.w3.org/2000/svg">
<path d="M66.196 34.9999H69.715V18.4399H66.196V34.9999Z" fill="#55AE36"/>
<path d="M76.9338 35.3681C80.6138 35.3681 83.0288 32.9991 83.0288 28.8131C83.0288 24.7651 80.6828 22.2351 76.9338 22.2351C73.2538 22.2351 70.8618 24.6041 70.8618 28.8131C70.8618 32.8841 73.1848 35.3681 76.9338 35.3681ZM76.9338 32.5161C75.3468 32.5161 74.4728 31.2051 74.4728 28.8131C74.4728 26.3981 75.3238 25.0871 76.9338 25.0871C78.5438 25.0871 79.4178 26.4211 79.4178 28.8131C79.4178 31.2281 78.5668 32.5161 76.9338 32.5161Z" fill="#55AE36"/>
<path d="M88.7538 35.0231C90.0878 35.0231 91.1918 34.4711 91.9738 33.3901V35.4601C91.9738 37.1851 91.1228 37.7601 89.8578 37.7601C88.6388 37.7601 87.6958 37.1621 87.5578 36.0581H84.0388C84.4758 39.0711 86.7528 40.4511 89.9038 40.4511C93.1468 40.4511 95.4928 38.7261 95.4928 35.4141V22.6261H91.9738V23.7761C91.2148 22.7641 90.1338 22.2351 88.7538 22.2351C85.6718 22.2351 83.6708 24.5351 83.6708 28.6521C83.6708 32.5851 85.6258 35.0231 88.7538 35.0231ZM89.6048 32.1711C88.0868 32.1711 87.2818 30.9061 87.2818 28.6521C87.2818 26.3291 88.0868 25.0871 89.6048 25.0871C91.1458 25.0871 91.9738 26.3521 91.9738 28.6291C91.9738 30.9291 91.1688 32.1711 89.6048 32.1711Z" fill="#55AE36"/>
<path d="M102.732 35.3681C106.412 35.3681 108.827 32.9991 108.827 28.8131C108.827 24.7651 106.481 22.2351 102.732 22.2351C99.0515 22.2351 96.6595 24.6041 96.6595 28.8131C96.6595 32.8841 98.9825 35.3681 102.732 35.3681ZM102.732 32.5161C101.145 32.5161 100.271 31.2051 100.271 28.8131C100.271 26.3981 101.122 25.0871 102.732 25.0871C104.342 25.0871 105.216 26.4211 105.216 28.8131C105.216 31.2281 104.365 32.5161 102.732 32.5161Z" fill="#55AE36"/>
<path d="M109.998 21.3839H113.517V18.4399H109.998V21.3839ZM109.998 34.9999H113.517V22.6259H109.998V34.9999Z" fill="#55AE36"/>
<path d="M118.711 40.0831V33.7581C119.447 34.8161 120.505 35.3681 121.816 35.3681C124.967 35.3681 127.014 32.9991 127.014 28.7901C127.014 24.7421 125.013 22.2351 121.816 22.2351C120.528 22.2351 119.47 22.8331 118.711 23.9141V22.6261H115.192V40.0831H118.711ZM121.08 25.0871C122.575 25.0871 123.403 26.3981 123.403 28.7901C123.403 31.2051 122.598 32.5161 121.08 32.5161C119.539 32.5161 118.711 31.1821 118.711 28.7901C118.711 26.3981 119.516 25.0871 121.08 25.0871Z" fill="#55AE36"/>
<path d="M131.24 26.0531C131.24 25.3861 131.838 24.9261 132.758 24.9261C134 24.9261 134.736 25.4551 134.943 26.7201H138.439C138.094 23.5921 135.84 22.2351 132.873 22.2351C129.561 22.2351 127.882 24.1671 127.882 26.2371C127.882 31.2051 135.38 29.0661 135.38 31.4581C135.38 32.2171 134.759 32.7001 133.517 32.7001C132.206 32.7001 131.263 32.0791 131.102 30.9291H127.583C128.043 33.9881 130.297 35.3681 133.425 35.3681C136.645 35.3681 138.899 33.6891 138.899 31.2511C138.899 26.3521 131.24 28.4911 131.24 26.0531Z" fill="#55AE36"/>
<path d="M147.569 29.733C147.569 31.32 146.695 32.516 145.338 32.516C144.096 32.516 143.498 31.734 143.498 30.147V22.626H139.979V30.86C139.979 33.942 141.704 35.368 144.05 35.368C145.545 35.368 146.764 34.724 147.569 33.344V35H151.088V22.626H147.569V29.733Z" fill="#55AE36"/>
<path d="M152.788 35.0001H156.307V27.8931C156.307 26.3061 157.112 25.0871 158.331 25.0871C159.458 25.0871 160.01 25.8921 160.01 27.4561V35.0001H163.506V27.8931C163.506 26.3061 164.334 25.0871 165.553 25.0871C166.68 25.0871 167.209 25.8921 167.209 27.4561V35.0001H170.728V26.7431C170.728 23.6841 169.026 22.2351 166.726 22.2351C165.185 22.2351 163.874 22.8791 163.023 24.2821C162.402 22.9021 161.16 22.2351 159.688 22.2351C158.262 22.2351 157.089 22.8561 156.307 24.1901V22.6261H152.788V35.0001Z" fill="#55AE36"/>
<path d="M52.8504 40.0526C56.6624 36.6486 59 32.0548 59 27C59 16.5066 48.9264 8 36.5 8C24.0736 8 14 16.5066 14 27C14 37.4934 24.0736 46 36.5 46C40.0253 46 43.3613 45.3154 46.3316 44.0949C49.8208 46.2486 54.0957 47.7967 58.8169 47.4702C56.3227 46.8362 54.1773 44.2679 52.8504 40.0526Z" fill="#B6EFA2"/>
<path d="M53 27C53 34.732 45.6127 41 36.5 41C27.3873 41 20 34.732 20 27C20 19.268 27.3873 13 36.5 13C45.6127 13 53 19.268 53 27Z" fill="#88E169"/>
<path d="M47 27C47 31.9706 42.299 36 36.5 36C30.701 36 26 31.9706 26 27C26 22.0294 30.701 18 36.5 18C42.299 18 47 22.0294 47 27Z" fill="#55AE36"/>
</svg>
